<svg width="26" height="25" viewBox="0 0 26 25" fill="none" xmlns="http://www.w3.org/2000/svg">
<path d="M18.3954 9.64423L17.4549 8.68077C17.2812 8.50288 17.0006 8.50288 16.8278 8.68077L11.1827 14.4625L8.49907 11.6913C8.32448 11.5135 8.04475 11.5135 7.87016 11.6913L6.92962 12.6558C6.75597 12.8337 6.75597 13.1212 6.92962 13.2981L10.8654 17.3587C11.0391 17.5356 11.3198 17.5356 11.4925 17.3587L18.3954 10.2875C18.57 10.1096 18.57 9.82212 18.3954 9.64423ZM12.9324 0C6.19277 0 0.729736 5.59615 0.729736 12.5C0.729736 19.4038 6.19277 25 12.9324 25C19.672 25 25.135 19.4038 25.135 12.5C25.135 5.59615 19.672 0 12.9324 0ZM12.9324 22.1154C7.74908 22.1154 3.54573 17.8096 3.54573 12.5C3.54573 7.18942 7.74908 2.88462 12.9324 2.88462C18.1166 2.88462 22.319 7.18942 22.319 12.5C22.319 17.8096 18.1166 22.1154 12.9324 22.1154Z" fill="#03EEFF"/>
</svg>
