<?xml version="1.0" encoding="UTF-8"?> <svg xmlns="http://www.w3.org/2000/svg" width="95" height="23" viewBox="0 0 95 23" fill="none"> <path fill-rule="evenodd" clip-rule="evenodd" d="M72.5081 8.44193C72.5081 6.89791 73.2879 6.5017 74.5088 6.78615V11.2706H72.5081V8.44193ZM66.9888 6.37219V22.5162C66.9888 22.6751 67.0368 22.7231 67.1957 22.7231H72.5081V14.5822H74.5088V22.7231H80.0281V3.26758H69.4035C68.4905 3.26758 67.9693 3.6555 67.5938 4.21758C67.2392 4.7484 66.9888 5.52163 66.9888 6.37219V6.37219ZM31.7341 11.2016V6.64816C32.8161 6.64816 33.2078 6.47553 33.4751 7.52889C33.8268 8.9151 33.8432 11.6929 31.7341 11.2016ZM26.2148 22.5162C26.2148 22.6752 26.2629 22.7231 26.4218 22.7231H31.7341V14.5822C32.5105 14.5822 33.7349 14.1185 33.7349 16.1V22.5852H39.3232V14.7201C39.3232 13.7489 38.8381 12.8686 37.8744 12.7884C38.1397 12.604 39.1852 12.1939 39.1852 11.1326V6.64816C39.1852 5.77347 38.7043 4.78017 38.2723 4.31852C37.7356 3.74504 37.0919 3.26758 36.0116 3.26758H26.2148V22.5162V22.5162ZM52.0176 22.7231H57.5369V14.5822H59.5377V22.7231H64.85C65.009 22.7231 65.057 22.6751 65.057 22.5162V3.26758H59.5377V11.2706H57.5369V3.26758H52.0176V22.7231ZM92.1706 7.20008C91.4907 7.20008 90.7218 6.54691 90.7218 5.95824C90.7218 5.35077 90.6569 5.06806 91.1842 4.55793C92.0607 3.71007 93.7574 4.26587 93.7574 5.68227C93.7574 6.55104 93.053 7.20008 92.1706 7.20008ZM81.9599 18.6526C81.9599 20.1382 82.3849 21.6211 83.7334 22.2605C85.4216 23.0609 91.5384 23.0892 93.2532 22.2879C94.4487 21.7293 94.9993 20.4458 94.9993 18.7216V3.26758H89.48V18.0317C89.48 19.2916 89.0631 19.5496 88.3071 19.5496C87.6943 19.5496 87.4792 18.6719 87.4792 18.0317V3.26758H81.9599V18.6526H81.9599ZM41.186 22.7231L50.2928 22.6542V19.3426H46.7053V14.5822H50.2928V11.2706H46.7053V6.57916H50.2928V3.26758H41.186V22.7231Z" fill="#2F2F2F"></path> <path fill-rule="evenodd" clip-rule="evenodd" d="M92.4455 5.75155C92.5835 6.01218 92.7934 6.22683 92.8595 6.51044C92.4245 6.47424 92.5342 6.11438 92.2699 5.85825C92.1038 5.69726 92.2409 5.75155 91.8936 5.75155V6.51044H91.6177V4.78567C92.1196 4.78567 92.9285 4.66782 92.9285 5.2686C92.9285 5.61072 92.7666 5.72483 92.4455 5.75155ZM90.9277 5.54458C90.9277 6.45541 91.4484 7.05609 92.2301 7.03888C93.9609 7.00078 93.9656 4.30273 92.1696 4.30273C91.5469 4.30273 90.9277 4.90207 90.9277 5.54458Z" fill="#5A5E5E"></path> <path fill-rule="evenodd" clip-rule="evenodd" d="M91.8945 5.61311H92.2395C92.8393 5.61311 92.7977 4.99219 92.4465 4.99219H91.8945V5.61311Z" fill="#5A5E5E"></path> <path fill-rule="evenodd" clip-rule="evenodd" d="M4.89844 19.5493C4.96632 19.8036 4.92863 19.6902 5.10104 19.8296L6.04348 20.543C6.28379 20.7018 6.46111 20.8415 6.71488 20.9755C9.40991 22.3989 12.3754 22.8145 15.225 21.3899C16.0465 20.9792 17.3407 20.1456 17.9279 19.4014C18.0217 19.2825 18.0877 19.2287 18.1976 19.1192C19.4224 17.8977 20.2145 15.5751 20.2145 13.6851C19.6711 14.049 18.747 14.8509 17.9656 15.3686L15.5365 16.872C14.9867 17.2051 14.3249 17.4916 13.7274 17.7536C11.5168 18.7229 9.89257 19.1043 7.47224 19.4325C6.66927 19.5413 5.8667 19.5493 4.89844 19.5493V19.5493Z" fill="#E9128B"></path> <path fill-rule="evenodd" clip-rule="evenodd" d="M0 11.1328C0 13.0864 0.277 14.6766 1.28209 16.1979C1.49823 16.525 2.18205 17.4559 2.46595 17.7047C2.80352 18.0004 3.71642 18.7773 4.07047 18.8598C3.7851 17.6349 3.72553 15.2117 3.72553 13.8234C3.72553 10.9419 4.30838 8.71 5.14853 6.34655C5.30184 5.91526 5.48223 5.4762 5.67996 5.08421C5.95397 4.54098 5.89129 4.54658 6.27515 3.8856C6.49289 3.51064 6.69632 3.09909 6.89912 2.71582C5.97806 2.9304 5.06442 3.41123 4.27277 3.88398C4.05633 4.01323 3.9157 4.12255 3.6971 4.27419L2.64065 5.1495C2.44088 5.3183 2.38843 5.46695 2.19081 5.66554C1.16841 6.69299 0 9.09458 0 11.1328V11.1328Z" fill="#A4CC3A"></path> <path fill-rule="evenodd" clip-rule="evenodd" d="M8.21094 1.74972V1.88769C8.62718 1.92233 9.8076 2.49133 10.2516 2.67567C10.8655 2.93049 11.6012 3.31828 12.1898 3.63513C13.9182 4.56565 15.749 5.87272 17.1281 7.25177C18.3077 8.43135 18.1289 8.23265 19.1966 9.52975C19.4286 9.81156 19.5962 10.0723 19.812 10.3631L20.9743 12.0984C21.0962 11.8444 21.2503 10.3346 21.2503 9.89069C21.2503 7.64134 20.3611 5.08481 18.819 3.56013C18.6299 3.37319 18.494 3.22638 18.3023 3.0419L17.7037 2.53662C16.4877 1.6194 14.5226 0.714844 12.9024 0.714844C11.4661 0.714844 10.309 0.752021 9.01465 1.38059C8.74436 1.51183 8.49597 1.68331 8.21094 1.74972L8.21094 1.74972Z" fill="#CFCFCF"></path> </svg> 