<svg width="30" height="30" viewBox="0 0 30 30" fill="none" xmlns="http://www.w3.org/2000/svg">
<rect width="30" height="30" fill="url(#paint0_radial_99_4673)"/>
<path d="M15.6563 1.00492C14.3159 1.13196 13.4335 1.31311 12.285 1.69189C11.1149 2.08008 9.85363 2.70823 8.92568 3.36697C7.68123 4.25157 6.77726 5.25615 6.21138 6.39013C5.79656 7.21826 5.59515 8.0111 5.55678 8.96628C5.54479 9.25095 5.5352 9.34976 5.52321 9.28388C5.51362 9.23213 5.35776 8.35929 5.18033 7.34295C4.84943 5.47495 4.75592 4.95972 4.74633 4.94795C4.74393 4.94325 4.67439 5.00677 4.59766 5.08911C3.13022 6.59951 2.02483 9.14978 1.72751 11.7189C1.60762 12.7517 1.61481 13.8527 1.75148 14.7773C1.89295 15.7443 2.14712 16.57 2.55235 17.377C2.89283 18.0593 3.28607 18.6051 3.7992 19.1062C4.21402 19.5132 4.68398 19.8637 5.18992 20.1414C5.28823 20.1955 5.34817 20.2331 5.3218 20.2237C5.29542 20.2143 5.18752 20.1766 5.08202 20.1414C4.97652 20.1061 4.0174 19.7626 2.95038 19.3791C1.88576 18.9933 1.00817 18.6851 1.00098 18.6898C0.981793 18.7109 1.25035 19.4661 1.38942 19.7767C1.78505 20.6731 2.37731 21.5859 3.13021 22.4728C3.42754 22.821 4.16127 23.5621 4.53053 23.8821C6.53508 25.6277 8.87533 26.677 10.9758 26.7735C12.3138 26.8346 13.5438 26.5476 14.5893 25.9289C14.702 25.863 14.7715 25.8277 14.7451 25.8536C14.618 25.9689 14.244 26.2771 12.8269 27.4369C11.9805 28.1286 11.2899 28.7026 11.2875 28.7168C11.2803 28.7685 11.9181 28.8979 12.5152 28.9685C12.9204 29.0155 14.2152 29.0085 14.7092 28.9567C16.2845 28.7897 17.8383 28.3545 19.253 27.6839C21.9361 26.4112 23.7201 24.5102 24.2739 22.3387C24.3819 21.9223 24.4226 21.5976 24.4394 21.0824L24.4538 20.5766L24.4969 20.8001C24.5425 21.0236 24.8878 22.9763 25.118 24.282C25.1827 24.6631 25.2427 24.9902 25.2499 25.009C25.2642 25.0513 25.4321 24.8961 25.6767 24.6114C27.5565 22.4375 28.6259 18.8356 28.3166 15.7184C28.0721 13.2293 27.0434 11.3213 25.3218 10.1614C25.2067 10.0838 25.0125 9.96145 24.8902 9.89087C24.7703 9.81794 24.6936 9.76853 24.7199 9.77559C24.7631 9.79206 28.331 11.0742 28.8154 11.2483C28.964 11.3025 29 11.3095 29 11.2813C29 11.2625 28.9568 11.1142 28.9041 10.9543C28.5228 9.80853 27.8347 8.64396 26.8612 7.49822C26.5495 7.13356 25.6239 6.22544 25.2355 5.90313C22.43 3.58577 19.253 2.69176 16.6921 3.49872C16.2701 3.63282 15.7546 3.85868 15.3781 4.07277C15.263 4.13864 15.2559 4.141 15.3086 4.08924C15.3422 4.05865 16.1143 3.42344 17.023 2.68C17.9342 1.93656 18.6919 1.31076 18.7087 1.29194C18.7255 1.27076 18.7303 1.24959 18.7207 1.24253C18.7087 1.23548 18.5384 1.19783 18.3418 1.15784C17.7016 1.03079 17.457 1.00962 16.5674 1.00256C16.1191 0.997858 15.709 1.00021 15.6563 1.00492ZM15.7402 5.71962C17.9534 5.84902 19.9411 6.71244 21.5165 8.22284C23.0079 9.6556 23.8975 11.4248 24.1732 13.4951C24.2332 13.9515 24.2332 15.1443 24.1732 15.589C23.9383 17.3182 23.3148 18.7627 22.219 20.1084C21.9385 20.4543 21.2383 21.1389 20.8715 21.4259C20.2049 21.9458 19.4808 22.3717 18.7374 22.6799C16.0279 23.8021 12.9612 23.5645 10.4507 22.0399C9.52033 21.4753 8.58519 20.6166 7.91861 19.7179C7.03382 18.5227 6.47993 17.1323 6.27612 15.6007C6.22337 15.2008 6.21617 13.9892 6.26413 13.5892C6.48233 11.7895 7.17529 10.2038 8.33343 8.84864C8.64274 8.48869 9.2302 7.92641 9.60905 7.62997C11.3451 6.27249 13.5366 5.59023 15.7402 5.71962Z" fill="url(#paint1_linear_99_4673)"/>
<defs>
<radialGradient id="paint0_radial_99_4673" cx="0" cy="0" r="1" gradientUnits="userSpaceOnUse" gradientTransform="translate(15 15) rotate(90) scale(9.5)">
<stop stop-color="#FE3F15"/>
<stop offset="1" stop-color="#03EEFF" stop-opacity="0"/>
</radialGradient>
<linearGradient id="paint1_linear_99_4673" x1="15" y1="29" x2="15" y2="1" gradientUnits="userSpaceOnUse">
<stop stop-color="#FE3F15"/>
<stop offset="1" stop-color="#03EEFF"/>
</linearGradient>
</defs>
</svg>
