<?xml version="1.0" standalone="no"?>
<!DOCTYPE svg PUBLIC "-//W3C//DTD SVG 20010904//EN"
 "http://www.w3.org/TR/2001/REC-SVG-20010904/DTD/svg10.dtd">
<svg version="1.0" xmlns="http://www.w3.org/2000/svg"
 width="1280.000000pt" height="1280.000000pt" viewBox="0 0 1280.000000 1280.000000"
 preserveAspectRatio="xMidYMid meet">
<metadata>
Created by potrace 1.15, written by Peter Selinger 2001-2017
</metadata>
<g transform="translate(0.000000,1280.000000) scale(0.100000,-0.100000)"
fill="#000000" stroke="none">
<path d="M6290 12320 c-47 -5 -175 -6 -285 -3 -175 5 -216 3 -325 -16 -123
-20 -166 -26 -305 -37 -38 -3 -106 -15 -150 -26 -92 -23 -215 -38 -215 -26 0
4 5 8 12 8 6 0 9 2 6 5 -7 7 -144 -21 -218 -45 -36 -11 -105 -31 -155 -45
-123 -32 -272 -80 -511 -163 -220 -77 -238 -84 -336 -148 -71 -47 -117 -67
-268 -119 -137 -48 -161 -59 -233 -113 -35 -27 -115 -76 -178 -109 -244 -129
-270 -145 -328 -212 -90 -104 -113 -124 -186 -161 -53 -27 -92 -58 -165 -133
-52 -55 -136 -128 -187 -163 -85 -60 -145 -120 -218 -219 -16 -22 -80 -89
-141 -150 -61 -60 -130 -138 -152 -171 -23 -34 -77 -104 -120 -155 -86 -102
-361 -513 -397 -594 -13 -27 -31 -77 -41 -109 -10 -33 -28 -71 -39 -85 -49
-61 -154 -229 -165 -266 -7 -22 -23 -69 -36 -105 -12 -36 -25 -78 -29 -95 -4
-16 -21 -52 -39 -80 -43 -65 -69 -115 -72 -140 -1 -11 -20 -67 -42 -125 -162
-433 -293 -952 -333 -1318 -6 -53 -15 -135 -20 -182 -13 -121 -21 -371 -10
-340 6 16 9 -30 10 -135 1 -88 4 -239 7 -335 4 -101 3 -172 -2 -167 -5 5 -12
75 -15 155 -4 81 -11 224 -15 317 l-9 170 -6 -100 c-8 -130 -1 -519 12 -660
21 -233 51 -483 69 -580 83 -436 169 -750 240 -880 39 -71 58 -125 80 -225 20
-94 40 -148 135 -371 120 -280 134 -306 220 -420 48 -64 84 -125 106 -180 72
-180 140 -291 357 -580 162 -216 293 -368 492 -573 193 -198 320 -312 431
-387 50 -33 113 -88 151 -131 47 -51 91 -88 150 -122 90 -54 116 -72 285 -193
66 -48 139 -91 180 -107 37 -14 122 -57 188 -96 128 -75 183 -99 303 -131 43
-11 97 -32 122 -47 112 -65 200 -104 329 -146 492 -161 804 -239 1180 -296 41
-6 158 -15 260 -20 102 -5 220 -17 261 -25 118 -24 731 -21 950 4 91 11 199
22 240 25 70 6 309 48 462 81 37 8 110 33 163 55 64 27 121 44 174 50 105 14
205 41 353 96 68 25 184 67 258 93 186 66 418 170 490 221 14 10 75 36 135 59
61 23 146 65 190 93 44 28 118 72 165 98 47 25 112 64 145 87 33 22 94 58 135
78 51 26 100 62 155 114 118 113 175 157 246 190 36 16 102 60 151 102 48 41
128 108 179 149 134 109 290 267 409 414 58 71 129 159 159 195 70 87 211 282
293 406 157 238 391 679 481 905 25 63 70 178 101 255 30 77 71 195 91 261 19
67 51 164 70 215 41 112 130 470 154 624 6 33 16 98 25 145 8 47 22 148 30
225 9 77 21 176 26 219 16 129 12 410 -6 496 -21 98 -21 212 1 329 11 60 15
111 11 145 -4 28 -11 85 -16 126 -5 41 -11 95 -14 120 -4 25 -10 81 -15 125
-12 100 -49 313 -75 430 -62 281 -128 515 -210 745 -15 41 -38 107 -51 145
-95 278 -313 727 -513 1055 -94 154 -196 310 -236 362 -12 15 -37 48 -56 75
-204 281 -406 509 -550 621 -47 36 -137 116 -200 176 -125 121 -395 329 -539
416 -105 63 -254 161 -291 190 -14 11 -62 33 -107 49 -50 18 -123 57 -188 100
-63 42 -128 77 -163 87 -112 32 -144 47 -235 107 -63 42 -116 68 -169 83 -42
13 -97 32 -122 43 -109 50 -387 145 -454 156 -24 4 -76 17 -115 30 -40 12
-101 26 -137 29 -77 9 -107 17 -221 62 -81 32 -92 34 -175 29 -49 -3 -102 -1
-119 4 -16 5 -47 12 -68 16 -21 3 -35 10 -32 16 11 16 -48 31 -145 35 -52 3
-120 9 -150 15 -134 25 -570 43 -710 29z"/>
</g>
</svg>
