<?xml version="1.0" standalone="no"?>
<!DOCTYPE svg PUBLIC "-//W3C//DTD SVG 20010904//EN"
 "http://www.w3.org/TR/2001/REC-SVG-20010904/DTD/svg10.dtd">
<svg version="1.0" xmlns="http://www.w3.org/2000/svg"
 width="1280.000000pt" height="1280.000000pt" viewBox="0 0 1280.000000 1280.000000"
 preserveAspectRatio="xMidYMid meet">
<metadata>
Created by potrace 1.15, written by Peter Selinger 2001-2017
</metadata>
<g transform="translate(0.000000,1280.000000) scale(0.100000,-0.100000)"
fill="#000000" stroke="none">
<path d="M7 12793 c-4 -3 -7 -2883 -7 -6400 l0 -6393 6400 0 6400 0 0 6400 0
6400 -6393 0 c-3517 0 -6397 -3 -6400 -7z m12083 -3273 l0 -2670 -2675 0
-2675 0 0 2670 0 2670 2675 0 2675 0 0 -2670z m-6080 -30 l0 -2670 -2670 0
-2670 0 0 2670 0 2670 2670 0 2670 0 0 -2670z m6075 -5985 l0 -2670 -2670 0
-2670 0 -3 2673 -2 2672 2672 -2 2673 -3 0 -2670z m-6075 -30 l0 -2675 -2670
0 -2670 0 0 2675 0 2675 2670 0 2670 0 0 -2675z"/>
</g>
</svg>
