<?xml version="1.0" ?><!DOCTYPE svg  PUBLIC '-//W3C//DTD SVG 1.1//EN'  'http://www.w3.org/Graphics/SVG/1.1/DTD/svg11.dtd'><svg enable-background="new 0 0 128 128" id="Слой_1" version="1.1" viewBox="0 0 128 128" xml:space="preserve" xmlns="http://www.w3.org/2000/svg" xmlns:xlink="http://www.w3.org/1999/xlink"><g><g><path d="M7,43.7v40.7h114V43.7H7z M52.2,47.7h5.2v2.6h4v-2.6h5.2v2.6h4v-2.6h5.2v5.2H52.2V47.7z M117,80.3H11V47.7    h37.2v9.2h31.5v-9.2H117V80.3z" fill="#3EBBC4"/><path d="M27.3,52.8c-6.2,0-11.2,5-11.2,11.2s5,11.2,11.2,11.2c6.2,0,11.2-5,11.2-11.2S33.5,52.8,27.3,52.8z     M34.5,64c0,1.3-0.3,2.4-0.9,3.5l-9.7-9.7c1-0.6,2.2-0.9,3.5-0.9C31.3,56.8,34.5,60,34.5,64z M20.2,64c0-1.3,0.3-2.4,0.9-3.4    l9.7,9.7c-1,0.6-2.2,0.9-3.4,0.9C23.4,71.2,20.2,68,20.2,64z" fill="#3EBBC4"/><path d="M100.7,75.2c6.2,0,11.2-5,11.2-11.2s-5-11.2-11.2-11.2s-11.2,5-11.2,11.2S94.5,75.2,100.7,75.2z M107.8,64    c0,3.3-2.2,6-5.2,6.9V57.1C105.7,58,107.8,60.7,107.8,64z M98.7,57.1v13.8c-3-0.9-5.2-3.6-5.2-6.9S95.7,58,98.7,57.1z" fill="#3EBBC4"/></g><g opacity="0.3"><polygon fill="#3EBBC4" points="7.1,69.5 4.3,53.9 8.3,53.2 9,57.1 9,57.1 11,68.8   "/></g><g opacity="0.3"><polygon fill="#3EBBC4" points="11.4,93.9 9.5,83.3 13.5,82.6 14.6,89.3 64.2,80.6 64.9,84.5   "/></g><g opacity="0.3"><polygon fill="#3EBBC4" points="118.9,75 118.2,71 119,70.9 117.6,63 121.6,62.3 123.7,74.1   "/></g><g opacity="0.3"><polygon fill="#3EBBC4" points="64.4,47.4 63.7,43.4 116.6,34.1 118.5,44.8 114.6,45.5 113.4,38.7   "/></g></g></svg>