<svg width="40" height="40" viewBox="0 0 40 40" fill="none" xmlns="http://www.w3.org/2000/svg">
<g clip-path="url(#clip0_279_3)">
<path d="M20 40C31.0457 40 40 31.0457 40 20C40 8.95433 31.0457 0 20 0C8.95433 0 0 8.95433 0 20C0 31.0457 8.95433 40 20 40Z" fill="url(#paint0_linear_279_3)"/>
<path d="M7.44844 20.9785C9.78642 19.6906 12.3963 18.6158 14.8348 17.5355C19.0299 15.766 23.2418 14.0271 27.4961 12.4083C28.3238 12.1325 29.8111 11.8627 29.9569 13.0894C29.8771 14.8257 29.5486 16.5519 29.3233 18.2781C28.7513 22.0741 28.0903 25.8571 27.4458 29.6406C27.2237 30.9008 25.6449 31.5532 24.6348 30.7467C22.2071 29.1069 19.7608 27.4831 17.3641 25.8052C16.579 25.0075 17.307 23.8619 18.0082 23.2922C20.0077 21.3217 22.1282 19.6476 24.0232 17.5752C24.5343 16.3408 23.024 17.3811 22.5258 17.6999C19.7885 19.5862 17.1182 21.5877 14.2322 23.2456C12.758 24.0571 11.0398 23.3636 9.56634 22.9107C8.24516 22.3637 6.30914 21.8126 7.44831 20.9786L7.44844 20.9785Z" fill="white"/>
</g>
<defs>
<linearGradient id="paint0_linear_279_3" x1="15.0023" y1="1.668" x2="5.00233" y2="25" gradientUnits="userSpaceOnUse">
<stop stop-color="#37AEE2"/>
<stop offset="1" stop-color="#1E96C8"/>
</linearGradient>
<clipPath id="clip0_279_3">
<rect width="40" height="40" fill="white"/>
</clipPath>
</defs>
</svg>
