<svg width="40" height="40" viewBox="0 0 40 40" fill="none" xmlns="http://www.w3.org/2000/svg">
<path d="M0 38.6664L4.26667 29.333L10.6667 35.9997L0 38.6664Z" fill="#924CC4"/>
<ellipse cx="20" cy="20" rx="20" ry="20" fill="#924CC4"/>
<path opacity="0.2" d="M21.3153 5.22754L21.3182 5.23064C20.8268 5.23064 20.4174 5.6603 20.4127 6.18035C20.4098 6.70277 20.8176 7.13979 21.3125 7.14248C23.4483 7.16002 25.2044 7.89984 26.6204 9.35538C28.0198 10.7974 28.7505 12.7941 28.7691 15.4013V15.4045C28.7742 15.9232 29.1819 16.3511 29.6746 16.3511C29.6747 16.3511 29.6826 16.3481 29.6832 16.3479C30.177 16.343 30.587 15.9077 30.583 15.3858C30.5717 13.8641 30.3464 12.4656 29.9045 11.2362C29.4569 9.99376 28.7758 8.89491 27.8891 7.98047C26.1368 6.17898 23.8998 5.24742 21.3238 5.22754H21.3153ZM11.2671 8.4274C10.9231 8.36422 10.5519 8.43671 10.18 8.63224H10.1488L10.109 8.65707C9.41806 9.08656 8.76871 9.66061 8.16184 10.3827L8.11359 10.4417V10.4913C7.6938 11.0635 7.41669 11.64 7.35288 12.217C7.3325 12.3147 7.33301 12.405 7.33301 12.4994C7.33301 12.7619 7.36968 13.0261 7.44371 13.2877L7.46358 13.3622L7.50332 13.3901C7.743 14.289 8.2888 15.6858 9.47889 18.0549C10.2716 19.6251 11.0815 20.938 11.8859 22.0431C12.3096 22.6239 12.7878 23.2279 13.3449 23.837C13.3514 23.8443 13.3761 23.8708 13.4016 23.896C13.4105 23.9057 13.4223 23.9247 13.4527 23.958L13.5095 24.0201H13.5124C13.532 24.0415 13.5464 24.0562 13.5493 24.0605L13.5579 24.0728L13.5692 24.0852C14.1263 24.6876 14.6755 25.2141 15.2127 25.6743C16.2221 26.5537 17.421 27.4474 18.8573 28.3155C21.027 29.6239 22.3198 30.215 23.1377 30.4725L23.1661 30.5129L23.2172 30.5315C23.4489 30.616 23.6881 30.6534 23.9268 30.6495C24.0236 30.6552 24.109 30.6479 24.1907 30.6277C24.7509 30.5561 25.3082 30.2681 25.8569 29.7649L25.8626 29.7555L25.8683 29.7524C25.8768 29.7431 25.8723 29.7462 25.8768 29.74C25.8818 29.7352 25.8831 29.7293 25.8882 29.7244C26.5377 29.0764 27.0606 28.3717 27.455 27.617L27.4805 27.5705V27.5239C27.8428 26.6993 27.7 25.857 27.1115 25.3203C27.0972 25.3068 26.8152 25.0494 26.4644 24.7368C26.1056 24.4173 25.6787 24.0423 25.3914 23.8119C24.8479 23.3724 24.0083 22.8028 23.5294 22.5115C22.6097 21.9485 21.6474 22.276 21.2246 22.8746L20.4837 23.8895C20.1847 24.3013 19.5856 24.263 19.5698 24.262C14.5412 22.8478 13.19 17.3181 13.1804 17.2788C13.1795 17.2615 13.1441 16.6085 13.521 16.2763L14.4435 15.4693C14.9925 15.0098 15.3018 13.9573 14.7841 12.9492C14.5139 12.4282 13.9908 11.5028 13.5947 10.9134C13.3806 10.5982 13.0384 10.1329 12.746 9.74024C12.6004 9.544 12.465 9.36252 12.3684 9.23435C12.3195 9.17026 12.2829 9.11852 12.2549 9.08227C12.2409 9.06415 12.229 9.05233 12.2208 9.04192C12.2168 9.03669 12.2131 9.03386 12.2095 9.02951C11.954 8.69781 11.6285 8.49474 11.27 8.4274H11.2671ZM21.3692 9.68127C20.8845 9.6439 20.4508 10.039 20.4155 10.5503C20.3801 11.0621 20.7573 11.5186 21.2415 11.5559C22.4387 11.6484 23.2458 12.0332 23.8529 12.7353V12.7384C24.4725 13.4535 24.7564 14.2699 24.7328 15.3858V15.392C24.7223 15.9056 25.1147 16.3398 25.6013 16.3511H25.6241C26.1036 16.3511 26.5018 15.9364 26.5125 15.4293C26.5453 13.8952 26.0906 12.5272 25.1699 11.4659C24.2427 10.3994 22.9313 9.80269 21.3692 9.68127Z" fill="black"/>
<path d="M22.501 4.9209L22.5041 4.9245C21.9651 4.9245 21.5161 5.42347 21.511 6.0274C21.5078 6.63408 21.9551 7.14158 22.4979 7.14471C24.8404 7.16507 26.7665 8.02422 28.3195 9.71452C29.8543 11.3891 30.6558 13.7078 30.6762 16.7356V16.7392C30.6817 17.3415 31.1289 17.8384 31.6693 17.8384C31.6693 17.8384 31.678 17.835 31.6786 17.8348C32.2202 17.8291 32.6699 17.3237 32.6655 16.7175C32.6533 14.9505 32.4061 13.3264 31.9214 11.8987C31.4306 10.4559 30.6836 9.17977 29.7111 8.11785C27.7892 6.02579 25.3357 4.94398 22.5103 4.9209H22.501ZM11.4804 8.63686C11.1031 8.56349 10.696 8.64768 10.288 8.87474H10.2538L10.2102 8.90357C9.45237 9.40233 8.74018 10.069 8.07457 10.9075L8.02165 10.976V11.0337C7.56124 11.6981 7.2573 12.3676 7.18732 13.0376C7.16498 13.1512 7.16553 13.256 7.16553 13.3656C7.16553 13.6704 7.20575 13.9773 7.28694 14.2811L7.30873 14.3676L7.35232 14.4C7.6152 15.4439 8.21382 17.066 9.51908 19.8172C10.3885 21.6406 11.2768 23.1653 12.159 24.4486C12.6238 25.1231 13.1482 25.8245 13.7592 26.5318C13.7664 26.5403 13.7935 26.5711 13.8215 26.6003C13.8312 26.6116 13.8441 26.6337 13.8775 26.6724L13.9398 26.7445H13.9429C13.9644 26.7694 13.9801 26.7864 13.9834 26.7913L13.9927 26.8058L14.0052 26.8202C14.6162 27.5196 15.2186 28.1311 15.8077 28.6655C16.9148 29.6867 18.2298 30.7246 19.805 31.7327C22.1847 33.2522 23.6026 33.9386 24.4997 34.2377L24.5308 34.2845L24.5868 34.3062C24.841 34.4042 25.1033 34.4477 25.3651 34.4431C25.4713 34.4498 25.5649 34.4413 25.6546 34.4179C26.2691 34.3347 26.8803 34.0002 27.4821 33.4159L27.4883 33.4051L27.4945 33.4015C27.5039 33.3908 27.4989 33.3943 27.5039 33.3871C27.5093 33.3815 27.5107 33.3748 27.5163 33.3691C28.2287 32.6166 28.8022 31.7982 29.2348 30.9218L29.2628 30.8677V30.8137C29.6601 29.8561 29.5035 28.8779 28.8581 28.2547C28.8423 28.239 28.533 27.94 28.1483 27.5771C27.7548 27.206 27.2866 26.7706 26.9715 26.503C26.3754 25.9926 25.4545 25.3311 24.9293 24.9928C23.9205 24.339 22.8652 24.7193 22.4014 25.4145L21.5888 26.5931C21.2609 27.0713 20.6038 27.0268 20.5864 27.0256C15.0711 25.3834 13.5892 18.9618 13.5787 18.9161C13.5777 18.896 13.5388 18.1378 13.9522 17.7519L14.964 16.8148C15.5661 16.2811 15.9054 15.0589 15.3376 13.8882C15.0414 13.283 14.4677 12.2083 14.0332 11.5238C13.7984 11.1578 13.4231 10.6174 13.1023 10.1614C12.9427 9.93356 12.7942 9.7228 12.6883 9.57396C12.6346 9.49953 12.5944 9.43944 12.5638 9.39735C12.5485 9.37631 12.5354 9.36258 12.5264 9.35049C12.5219 9.34442 12.5179 9.34113 12.514 9.33608C12.2338 8.95088 11.8768 8.71506 11.4835 8.63686H11.4804ZM22.5601 10.093C22.0286 10.0496 21.5529 10.5084 21.5141 11.1021C21.4753 11.6966 21.8891 12.2266 22.4201 12.2699C23.7332 12.3774 24.6183 12.8242 25.2842 13.6395V13.6431C25.9638 14.4736 26.2752 15.4216 26.2493 16.7175V16.7247C26.2378 17.3211 26.6682 17.8254 27.2019 17.8384H27.2268C27.7527 17.8384 28.1895 17.3568 28.2012 16.768C28.2372 14.9865 27.7385 13.3978 26.7287 12.1654C25.7117 10.927 24.2735 10.234 22.5601 10.093Z" fill="white"/>
</svg>
