<svg width="40" height="40" viewBox="0 0 40 40" fill="none" xmlns="http://www.w3.org/2000/svg">
<g clip-path="url(#clip0_279_11)">
<path d="M0 40L3.44 29.6807C1.69448 26.7448 0.689655 23.3186 0.689655 19.6552C0.689655 8.8 9.48966 0 20.3448 0C31.2 0 40 8.8 40 19.6552C40 30.5103 31.2 39.3103 20.3448 39.3103C17.0421 39.3103 13.9317 38.4917 11.2 37.0531L0 40Z" fill="#2CB742"/>
<path opacity="0.2" d="M33.7781 26.1673C32.8569 24.4817 29.4598 22.5541 29.4598 22.5541C28.6912 22.1299 27.7637 22.0824 27.3255 22.8388C27.3255 22.8388 26.2216 24.1205 25.9409 24.3048C24.6585 25.1459 23.4706 25.1134 22.2715 23.9524L19.4848 21.2542L16.6981 18.556C15.499 17.395 15.4654 16.2448 16.3341 15.0031C16.5245 14.7314 17.8482 13.6625 17.8482 13.6625C18.6294 13.2376 18.5804 12.3402 18.1422 11.596C18.1422 11.596 16.1514 8.3068 14.4105 7.41486C13.6699 7.03531 12.7606 7.16815 12.1684 7.74154L10.9378 8.93305C7.03384 12.713 8.95605 16.9802 12.86 20.7601L16.4279 24.2147L19.9958 27.6692C23.8997 31.4492 28.3069 33.3103 32.2108 29.5304L33.4414 28.3389C34.0336 27.7641 34.1701 26.8837 33.7781 26.1673Z" fill="black"/>
<path d="M32.8847 26.1963C31.9772 24.4811 28.6303 22.5197 28.6303 22.5197C27.873 22.088 26.9592 22.0397 26.5275 22.8094C26.5275 22.8094 25.4399 24.1135 25.1634 24.3011C23.8999 25.157 22.7296 25.1239 21.5482 23.9425L18.8027 21.197L16.0572 18.4515C14.8758 17.2701 14.8427 16.0997 15.6985 14.8363C15.8861 14.5597 17.1903 13.4722 17.1903 13.4722C17.9599 13.0397 17.9116 12.1266 17.4799 11.3694C17.4799 11.3694 15.5185 8.0225 13.8034 7.11491C13.0737 6.7287 12.1778 6.86388 11.5944 7.44732L10.382 8.65974C6.53578 12.5059 8.42957 16.848 12.2758 20.6942L15.7909 24.2094L19.3061 27.7246C23.1523 31.5708 27.4944 33.4646 31.3406 29.6184L32.553 28.4059C33.1365 27.8211 33.2709 26.9253 32.8847 26.1963Z" fill="white"/>
</g>
<defs>
<clipPath id="clip0_279_11">
<rect width="40" height="40" fill="white"/>
</clipPath>
</defs>
</svg>
