<svg width="88" height="88" viewBox="0 0 88 88" fill="none" xmlns="http://www.w3.org/2000/svg">
<g clip-path="url(#clip0_264_199)">
<path d="M81.1617 56.0597C80.7613 55.5666 80.1032 55.2709 79.4164 55.2709H66.1119V50.3886C66.1119 49.378 65.1391 48.5396 63.9658 48.5396H15.7545C14.5814 48.5396 13.6086 49.378 13.6086 50.3886V80.2723C13.6086 81.2832 14.5814 82.1213 15.7545 82.1213H21.8203C22.9362 85.4748 26.5413 87.9649 30.7759 87.9649C35.0105 87.9649 38.6156 85.4992 39.7313 82.1213H63.5082C64.624 85.4748 68.229 87.9649 72.4637 87.9649C76.6983 87.9649 80.3034 85.4992 81.4191 82.1213H85.8543C87.0273 82.1213 88.0001 81.2832 88.0001 80.2723V65.0591C88.0001 64.6649 87.8571 64.295 87.5997 63.9989L81.1617 56.0597ZM83.7368 65.6018H74.1232V58.9937H78.3292L83.7368 65.6018ZM17.9004 52.2628H61.8201V78.4477H39.9319C39.1021 74.7244 35.3252 71.9137 30.7759 71.9137C26.2266 71.9137 22.4211 74.7244 21.62 78.4477H17.9004V52.2628ZM30.7759 84.2665C28.0005 84.2665 25.7401 82.3186 25.7401 79.9269C25.7401 77.5352 28.0005 75.5873 30.7759 75.5873C33.5512 75.5873 35.8116 77.5352 35.8116 79.9269C35.8116 82.3186 33.5512 84.2665 30.7759 84.2665ZM72.4923 84.2665C69.717 84.2665 67.4565 82.3186 67.4565 79.9269C67.4565 77.5352 69.717 75.5873 72.4923 75.5873C75.2676 75.5873 77.5281 77.5352 77.5281 79.9269C77.5281 82.3186 75.2676 84.2665 72.4923 84.2665ZM81.6483 78.4477C80.8185 74.7244 77.0415 71.9137 72.4923 71.9137C70.0316 71.9137 67.7714 72.7521 66.1119 74.1081V58.9937H69.8028V67.4508C69.8028 68.4618 70.7755 69.3002 71.9489 69.3002H83.7654V78.4477H81.6483Z" fill="white"/>
<path d="M1.12409 51.3332H9.14258C9.75707 51.3332 10.2667 50.7001 10.2667 49.9364C10.2667 49.1727 9.75707 48.5396 9.14258 48.5396H1.12409C0.509586 48.5396 0 49.1727 0 49.9364C0 50.7001 0.509586 51.3332 1.12409 51.3332Z" fill="white"/>
<path d="M9.09219 53.4287H2.64093C1.99894 53.4287 1.46655 53.9829 1.46655 54.6509C1.46655 55.319 1.99894 55.8732 2.64093 55.8732H9.09219C9.73415 55.8732 10.2666 55.319 10.2666 54.6509C10.2666 53.9829 9.74981 53.4287 9.09219 53.4287Z" fill="white"/>
<path d="M8.92523 58.3174H4.2748C3.54148 58.3174 2.93335 58.7923 2.93335 59.365C2.93335 59.9377 3.54148 60.4126 4.2748 60.4126H8.92523C9.65857 60.4126 10.2667 59.9377 10.2667 59.365C10.2667 58.7923 9.67642 58.3174 8.92523 58.3174Z" fill="white"/>
<path d="M8.66247 62.5078H6.73747C5.86051 62.5078 5.1333 62.9035 5.1333 63.3808C5.1333 63.8582 5.86051 64.2538 6.73747 64.2538H8.66247C9.53942 64.2538 10.2666 63.8582 10.2666 63.3808C10.2666 62.9035 9.5608 62.5078 8.66247 62.5078Z" fill="white"/>
<g opacity="0.6">
<path d="M23.7222 29.5079V18.5429C23.7222 16.9016 25.2211 15.5746 27.075 15.5746H30.349V14.1778H27.075C26.9567 14.1778 26.7989 14.1778 26.6806 14.2127C28.1006 12.9207 30.0335 12.2572 32.4001 12.2572V10.8604C28.7317 10.8604 25.7733 12.327 24.0772 14.9809C24.0377 15.0508 23.9983 15.1206 23.9588 15.1905C22.8544 15.9937 22.1443 17.2158 22.1443 18.5429V18.9619C21.2371 19.0317 20.4876 19.7301 20.4876 20.5682V22.5937C20.4876 23.4318 21.1977 24.1302 22.1443 24.1999V29.5429C22.1443 31.4634 22.8938 33.2444 24.1955 34.6412L22.1838 35.5143C20.8426 36.073 19.9749 37.2952 19.9749 38.6222V43.6508H29.5207V42.254H25.5761V41.5905H23.9983V42.254H21.5527V38.6222C21.5527 37.854 22.0654 37.1206 22.8544 36.7714L25.3789 35.6889C26.5622 36.5619 27.9823 37.1905 29.5601 37.4349L29.8362 36.073C26.2861 35.4444 23.7222 32.7206 23.7222 29.5079ZM22.0654 22.5587V20.5333C22.0654 20.4634 22.1049 20.4286 22.1443 20.3937V22.7333C22.1049 22.6635 22.0654 22.6285 22.0654 22.5587Z" fill="#E9E9E9"/>
<path d="M27.4299 22.2445H33.8595V20.8477H25.8521V25.8064H35.8318V24.4096H27.4299V22.2445Z" fill="#E9E9E9"/>
<path d="M66.836 18.7526C66.5206 13.8288 62.2603 9.7431 56.6591 9.14941L56.4619 10.5462C61.1559 11.0352 64.7848 14.3875 65.2582 18.5082L64.9033 18.4382C63.9961 14.2478 61.0771 11.5589 56.8564 11.0352L56.6195 12.432C60.3669 12.9208 62.8125 15.3653 63.4436 19.3462L63.0494 21.2668C63.0098 21.2668 63.0098 21.2668 62.9706 21.2668C60.2488 21.651 57.882 20.8129 55.752 19.87C55.3575 19.6954 54.8841 19.8351 54.6868 20.1843C54.4896 20.5335 54.6472 20.9525 55.0418 21.1271C56.896 21.9652 59.1048 22.7684 61.6293 22.7684C61.9842 22.7684 62.3788 22.7335 62.7337 22.6986L61.787 27.4129C59.2229 31.9177 56.3434 32.4415 55.1602 32.4415C54.0162 32.4415 51.7678 31.9875 49.5194 28.9493L48.2573 29.6828C50.8999 33.2795 53.7401 33.8383 55.239 33.8383C56.1069 33.8383 56.896 33.6637 57.6059 33.4192C57.7635 33.7335 58.0396 33.9779 58.3553 34.1177L64.5087 36.7367C65.2978 37.0859 65.8104 37.7843 65.8104 38.5875V42.1843H63.4436V41.5907H61.8658V42.1843H59.144V43.5812H67.4278V38.5875C67.4278 37.2605 66.5599 36.0732 65.2186 35.4796L59.0652 32.8256V32.6858C61.1163 31.3938 62.576 29.2986 63.4043 27.762L64.9033 28.0065C65.0609 28.0414 65.2186 28.0414 65.337 28.0414C66.5995 28.0414 67.6643 27.2383 67.9011 26.1557L68.8479 21.4414C69.0844 20.1844 68.2168 19.032 66.836 18.7526ZM67.3093 21.1621L66.3626 25.8763C66.2838 26.3653 65.7316 26.6796 65.1794 26.6097L63.6804 26.3653L64.9821 19.87L66.481 20.1144C67.0332 20.2193 67.3882 20.6732 67.3093 21.1621Z" fill="#E9E9E9"/>
</g>
<path d="M57.1326 33.6984L51.1369 31.1142L49.1646 30.2762V29.7174C51.3734 28.3904 53.8191 25.8063 55.8702 20.9523C56.9354 20.9175 57.8425 20.4984 58.3947 19.8C59.0653 18.9619 59.1838 17.8444 58.7104 16.9365C58.5527 16.6222 58.3159 16.3777 58.0794 16.1683H59.0261V12.8159L57.3299 12.3968V12.1873C57.3299 7.82222 54.5293 3.87619 50.1113 1.95555C49.8745 1.1873 49.125 0.628571 48.1783 0.628571H45.22V0H43.6422V0.593651H40.684C39.7372 0.593651 38.9878 1.15238 38.7509 1.92063C34.333 3.84127 31.5325 7.82222 31.5325 12.1524V12.3619L29.8363 12.8159V16.1683H30.783C30.5068 16.3777 30.3096 16.6571 30.1519 16.9365C29.6785 17.8444 29.7968 18.9619 30.4674 19.8C31.0591 20.5333 31.9663 20.9175 32.9919 20.9523C35.0431 25.8063 37.5281 28.3556 39.6976 29.7174V30.2762L38.2383 30.9047L31.7297 33.6984C30.1124 34.3968 29.0474 35.8635 29.0474 37.4698V43.581H59.8148V37.4698C59.8148 35.8635 58.75 34.3968 57.1326 33.6984ZM47.5868 30.8C47.5868 30.9047 47.5472 31.0444 47.5472 31.1841C47.5472 31.254 47.508 31.3587 47.508 31.4286C47.4684 31.4984 47.4684 31.5682 47.4292 31.638C47.4292 31.638 47.4292 31.673 47.3896 31.673C47.35 31.7428 47.35 31.7777 47.3107 31.8476C47.3107 31.8825 47.2711 31.9175 47.2319 31.9523C47.2319 31.9873 47.1923 32.0222 47.1527 32.0571C47.1135 32.1269 47.0739 32.1967 47.0346 32.2667C46.6797 32.7206 46.206 33.0698 45.6538 33.2793C45.6538 33.2793 45.6538 33.2793 45.6145 33.2793C45.5357 33.3142 45.4565 33.3492 45.3777 33.3492H45.3384C45.2596 33.3841 45.1804 33.3841 45.1016 33.3841C45.0623 33.3841 45.0623 33.3841 45.0227 33.3841C44.9439 33.3841 44.8651 33.419 44.7862 33.419C44.7466 33.419 44.7466 33.419 44.707 33.419C44.589 33.419 44.5101 33.419 44.3917 33.419C42.6559 33.419 41.2358 32.1619 41.2358 30.6254V30.4159C42.5378 30.9396 43.6422 31.0444 44.3917 31.0444C45.1412 31.0444 46.2456 30.9396 47.5472 30.4159V30.7301C47.5868 30.765 47.5868 30.7651 47.5868 30.8ZM57.1326 18.9968C56.9746 19.1714 56.7777 19.3809 56.4224 19.4857C56.6197 18.7174 56.7777 17.8793 56.8565 17.1111C57.0538 17.2158 57.2115 17.3556 57.2903 17.5651C57.5272 17.9841 57.4876 18.5778 57.1326 18.9968ZM31.4141 13.8635L33.1103 13.4444V12.1873C33.1103 8.62543 35.2797 5.34286 38.6721 3.5619V7.75238H40.2498V2.3746C40.2498 2.16508 40.4471 1.99048 40.684 1.99048H43.6422V10.0222H45.22V1.99048H48.1783C48.4151 1.99048 48.6124 2.16508 48.6124 2.3746V7.71746H50.1902V3.52698C53.6218 5.30794 55.7518 8.59048 55.7518 12.1524V13.4095L57.448 13.8286V14.7365H31.4141V13.8635ZM31.7297 18.9968C31.3746 18.5778 31.3351 17.9841 31.5719 17.5651C31.6902 17.3905 31.8085 17.2158 32.0058 17.1111C32.0846 17.9841 32.2819 18.7524 32.4791 19.4857C32.1241 19.3809 31.8874 19.1714 31.7297 18.9968ZM34.2936 20.0444C33.9386 18.892 33.5836 17.6698 33.5047 16.1683H55.3576C55.318 17.2857 55.0419 18.9619 54.6081 20.0095C51.0581 28.7746 46.3244 29.7174 44.4309 29.7174C42.5771 29.7524 37.8438 28.8095 34.2936 20.0444ZM58.237 42.1841H54.687V41.2063H53.1092V42.1841H35.753V41.2063H34.1753V42.1841H30.6252V37.4698C30.6252 36.3873 31.3351 35.4095 32.4002 34.9556L39.8553 31.7777C39.8553 31.8127 39.8949 31.8476 39.8949 31.8825C39.8949 31.9175 39.9345 31.9873 39.9345 32.0222C39.9737 32.0921 40.0133 32.1967 40.0526 32.2667C40.0526 32.3016 40.0922 32.3365 40.0922 32.3714C40.1314 32.4762 40.2106 32.5809 40.2498 32.6508C40.2498 32.6508 40.2498 32.6857 40.2894 32.6857C40.3683 32.7904 40.4471 32.8952 40.5259 33C40.5655 33.0349 40.5655 33.0698 40.6048 33.1048C40.6444 33.1746 40.7232 33.2444 40.802 33.3142C40.8416 33.3492 40.8809 33.3841 40.9205 33.419C40.9601 33.4889 41.0389 33.5238 41.1177 33.5936C41.157 33.6285 41.1966 33.6635 41.2358 33.6984C41.315 33.7683 41.3542 33.8031 41.4334 33.8729C41.4727 33.9079 41.5123 33.9429 41.5515 33.9777C41.6303 34.0476 41.7095 34.0825 41.7884 34.1524C41.8276 34.1873 41.8672 34.1873 41.8672 34.2222C41.9856 34.292 42.1037 34.3619 42.2221 34.4316C42.2617 34.4316 42.2617 34.4666 42.301 34.4666C42.4194 34.5016 42.4982 34.5714 42.6167 34.6063C42.6559 34.6412 42.6955 34.6412 42.7743 34.6412C42.8532 34.6762 42.932 34.7111 43.0504 34.7111C43.09 34.7111 43.1689 34.746 43.2085 34.746C43.2873 34.781 43.4054 34.781 43.4846 34.8158C43.5238 34.8158 43.6026 34.8508 43.6422 34.8508C43.7211 34.8508 43.8395 34.8857 43.9576 34.8857C43.9972 34.8857 44.0368 34.8857 44.1156 34.8857C44.2733 34.8857 44.4309 34.9206 44.5494 34.9206C44.707 34.9206 44.8255 34.9206 44.9835 34.9206C45.0623 34.9206 45.1412 34.9206 45.1804 34.8857C45.2596 34.8857 45.2988 34.8857 45.3777 34.8508C45.4565 34.8508 45.5749 34.8158 45.6538 34.7809C45.6934 34.7809 45.733 34.781 45.7722 34.746C45.8906 34.7111 45.9695 34.6762 46.0879 34.6762C46.1271 34.6762 46.1271 34.6762 46.1667 34.6762C46.2852 34.6412 46.4032 34.6063 46.4821 34.5714H46.5217C46.6401 34.5365 46.7585 34.4666 46.8374 34.4316C46.9554 34.3619 47.0346 34.327 47.1527 34.2571C47.2711 34.1873 47.35 34.1524 47.4292 34.0825C47.4292 34.0825 47.4684 34.0825 47.4684 34.0476C47.5472 33.9777 47.6264 33.9079 47.7053 33.8729L47.7445 33.8381C47.8233 33.7683 47.8629 33.7333 47.9418 33.6635C47.981 33.6285 48.0206 33.5936 48.0206 33.5587C48.0602 33.5238 48.0994 33.4539 48.1783 33.419C48.2179 33.3492 48.2967 33.3142 48.3363 33.2444C48.3755 33.2095 48.3755 33.1746 48.4151 33.1746C48.7305 32.7904 48.9673 32.3365 49.0858 31.8476L56.5012 35.0254C57.606 35.4794 58.2763 36.4921 58.2763 37.5397V42.1841H58.237Z" fill="white"/>
<path d="M52.9115 12.2222H35.9502V13.619H52.9115V12.2222Z" fill="white"/>
</g>
<defs>
<clipPath id="clip0_264_199">
<rect width="88" height="88" fill="white"/>
</clipPath>
</defs>
</svg>
