<svg width="80" height="83" viewBox="0 0 80 83" fill="none" xmlns="http://www.w3.org/2000/svg">
<g clip-path="url(#clip0_262_154)">
<path d="M40.518 18.4526H54.5541C54.8758 18.4526 55.1843 18.5852 55.4117 18.8212C55.6392 19.0572 55.767 19.3773 55.767 19.7111C55.767 20.0449 55.6392 20.365 55.4117 20.601C55.1843 20.837 54.8758 20.9696 54.5541 20.9696H40.518C40.1964 20.9696 39.8878 20.837 39.6604 20.601C39.4329 20.365 39.3051 20.0449 39.3051 19.7111C39.3051 19.3773 39.4329 19.0572 39.6604 18.8212C39.8878 18.5852 40.1964 18.4526 40.518 18.4526ZM23.8321 20.9659H34.0407C34.3624 20.9659 34.6709 20.8333 34.8984 20.5973C35.1259 20.3613 35.2537 20.0412 35.2537 19.7074C35.2537 19.3736 35.1259 19.0535 34.8984 18.8175C34.6709 18.5815 34.3624 18.449 34.0407 18.449H23.8321C23.5104 18.449 23.2018 18.5815 22.9744 18.8175C22.7469 19.0535 22.6191 19.3736 22.6191 19.7074C22.6191 20.0412 22.7469 20.3613 22.9744 20.5973C23.2018 20.8333 23.5104 20.9659 23.8321 20.9659ZM23.8321 37.7357H36.7618C37.0717 37.7183 37.3633 37.5782 37.5768 37.3445C37.7902 37.1107 37.9091 36.801 37.9091 36.479C37.9091 36.1571 37.7902 35.8473 37.5768 35.6136C37.3633 35.3798 37.0717 35.2399 36.7618 35.2224H23.8321C23.5222 35.2399 23.2305 35.3798 23.0171 35.6136C22.8037 35.8473 22.6848 36.1571 22.6848 36.479C22.6848 36.801 22.8037 37.1107 23.0171 37.3445C23.2305 37.5782 23.5222 37.7183 23.8321 37.7357ZM13.3353 25.1583C11.9419 25.1583 10.6056 24.5841 9.62034 23.5618C8.63507 22.5395 8.08156 21.1531 8.08156 19.7074C8.08156 18.2617 8.63507 16.8753 9.62034 15.853C10.6056 14.8308 11.9419 14.2565 13.3353 14.2565C14.7287 14.2565 16.065 14.8308 17.0502 15.853C18.0355 16.8753 18.589 18.2617 18.589 19.7074C18.589 21.1531 18.0355 22.5395 17.0502 23.5618C16.065 24.5841 14.7287 25.1583 13.3353 25.1583ZM13.3353 16.7735C12.64 16.8545 11.9978 17.1985 11.5314 17.7398C11.0651 18.2809 10.8073 18.9815 10.8073 19.7074C10.8073 20.4334 11.0651 21.134 11.5314 21.6751C11.9978 22.2163 12.64 22.5603 13.3353 22.6414C14.0306 22.5603 14.6728 22.2163 15.1391 21.6751C15.6055 21.134 15.8632 20.4334 15.8632 19.7074C15.8632 18.9815 15.6055 18.2809 15.1391 17.7398C14.6728 17.1985 14.0306 16.8545 13.3353 16.7735ZM13.3353 41.9318C11.9419 41.9318 10.6056 41.3575 9.62034 40.3352C8.63507 39.313 8.08156 37.9266 8.08156 36.4809C8.08156 35.0352 8.63507 33.6487 9.62034 32.6265C10.6056 31.6042 11.9419 31.03 13.3353 31.03C14.7287 31.03 16.065 31.6042 17.0502 32.6265C18.0355 33.6487 18.589 35.0352 18.589 36.4809C18.589 37.9266 18.0355 39.313 17.0502 40.3352C16.065 41.3575 14.7287 41.9318 13.3353 41.9318ZM13.3353 33.5432C12.6367 33.6204 11.9904 33.963 11.5206 34.505C11.0509 35.047 10.7911 35.7501 10.7911 36.479C10.7911 37.2079 11.0509 37.911 11.5206 38.4531C11.9904 38.995 12.6367 39.3377 13.3353 39.4149C14.0338 39.3377 14.6802 38.995 15.1499 38.4531C15.6196 37.911 15.8795 37.2079 15.8795 36.479C15.8795 35.7501 15.6196 35.047 15.1499 34.505C14.6802 33.963 14.0338 33.6204 13.3353 33.5432ZM23.8321 54.5128H35.1576C35.4793 54.5128 35.7878 54.3802 36.0153 54.1442C36.2428 53.9082 36.3706 53.5881 36.3706 53.2543C36.3706 52.9206 36.2428 52.6005 36.0153 52.3645C35.7878 52.1284 35.4793 51.9959 35.1576 51.9959H23.8321C23.5104 51.9959 23.2018 52.1284 22.9744 52.3645C22.7469 52.6005 22.6191 52.9206 22.6191 53.2543C22.6191 53.5881 22.7469 53.9082 22.9744 54.1442C23.2018 54.3802 23.5104 54.5128 23.8321 54.5128ZM13.3353 58.7053C11.9419 58.7053 10.6056 58.1309 9.62034 57.1087C8.63507 56.0865 8.08156 54.7 8.08156 53.2543C8.08156 51.8087 8.63507 50.4222 9.62034 49.4C10.6056 48.3777 11.9419 47.8034 13.3353 47.8034C14.7287 47.8034 16.065 48.3777 17.0502 49.4C18.0355 50.4222 18.589 51.8087 18.589 53.2543C18.589 54.7 18.0355 56.0865 17.0502 57.1087C16.065 58.1309 14.7287 58.7053 13.3353 58.7053ZM13.3353 50.3166C12.6367 50.3939 11.9904 50.7365 11.5206 51.2784C11.0509 51.8205 10.7911 52.5236 10.7911 53.2525C10.7911 53.9814 11.0509 54.6845 11.5206 55.2266C11.9904 55.7685 12.6367 56.1111 13.3353 56.1883C14.0338 56.1111 14.6802 55.7685 15.1499 55.2266C15.6196 54.6845 15.8795 53.9814 15.8795 53.2525C15.8795 52.5236 15.6196 51.8205 15.1499 51.2784C14.6802 50.7365 14.0338 50.3939 13.3353 50.3166ZM46.4725 68.7693H23.8321C23.5222 68.7867 23.2305 68.9268 23.0171 69.1605C22.8037 69.3943 22.6848 69.704 22.6848 70.026C22.6848 70.3479 22.8037 70.6576 23.0171 70.8914C23.2305 71.1252 23.5222 71.2651 23.8321 71.2826H46.4618C46.7718 71.2666 47.0641 71.1279 47.2786 70.8952C47.493 70.6624 47.6133 70.3532 47.6147 70.0312C47.616 69.7091 47.4984 69.3989 47.2859 69.1641C47.0734 68.9294 46.7823 68.7881 46.4725 68.7693ZM13.3353 75.4787C11.9651 75.4417 10.663 74.851 9.70653 73.8324C8.75002 72.8138 8.21474 71.448 8.21474 70.026C8.21474 68.6039 8.75002 67.238 9.70653 66.2195C10.663 65.2009 11.9651 64.6102 13.3353 64.5732C14.7055 64.6102 16.0075 65.2009 16.964 66.2195C17.9205 67.238 18.4558 68.6039 18.4558 70.026C18.4558 71.448 17.9205 72.8138 16.964 73.8324C16.0075 74.851 14.7055 75.4417 13.3353 75.4787ZM13.3353 67.0901C12.6367 67.1673 11.9904 67.5099 11.5206 68.0519C11.0509 68.594 10.7911 69.297 10.7911 70.026C10.7911 70.7548 11.0509 71.458 11.5206 71.9999C11.9904 72.542 12.6367 72.8846 13.3353 72.9617C14.0338 72.8846 14.6802 72.542 15.1499 71.9999C15.6196 71.458 15.8795 70.7548 15.8795 70.026C15.8795 69.297 15.6196 68.594 15.1499 68.0519C14.6802 67.5099 14.0338 67.1673 13.3353 67.0901ZM63.845 67.4075V76.7261C63.8403 78.3886 63.2017 79.9815 62.0687 81.157C60.9357 82.3325 59.4004 82.9951 57.7981 83H6.04694C4.44492 82.9942 2.91013 82.3313 1.77732 81.156C0.644517 79.9806 0.00562445 78.3883 0 76.7261V6.2739C0.00655495 4.61205 0.645746 3.02021 1.77835 1.8451C2.91095 0.669983 4.44521 0.00680098 6.04694 0H57.7874C59.3894 0.00583556 60.9242 0.668707 62.057 1.84402C63.1898 3.01936 63.8287 4.61176 63.8343 6.2739V25.6713C68.4171 26.7184 72.5179 29.358 75.4577 33.153C78.3975 36.9479 80 41.6706 80 46.5394C80 51.4081 78.3975 56.131 75.4577 59.9259C72.5179 63.7208 68.4171 66.3603 63.8343 67.4075H63.845ZM20.6094 8.38489H43.2392C46.0848 8.31477 45.0888 4.37697 45.2596 2.51325H18.5819C18.7597 4.38066 17.746 8.31107 20.6094 8.38489ZM61.4262 67.8024C31.4476 69.179 31.4334 23.8851 61.4262 25.247V6.2739C61.4215 5.27546 61.0362 4.31952 60.3544 3.6149C59.6726 2.91027 58.7497 2.51421 57.7874 2.51325H47.6855V6.2739C47.6855 6.87971 47.5704 7.47958 47.347 8.03928C47.1236 8.59897 46.796 9.10753 46.3832 9.5359C45.9703 9.96427 45.4801 10.3041 44.9407 10.5359C44.4012 10.7678 43.8231 10.887 43.2392 10.887H20.6094C19.4305 10.8861 18.3001 10.3997 17.4664 9.53481C16.6328 8.66989 16.1641 7.49708 16.1631 6.2739V2.51325H6.04694C5.08741 2.51811 4.16856 2.91599 3.49039 3.62031C2.81222 4.32462 2.42963 5.27835 2.42589 6.2739V76.7261C2.42588 77.7242 2.80681 78.6817 3.48538 79.3892C4.16396 80.0967 5.08495 80.4967 6.04694 80.5015H57.7874C58.7522 80.5006 59.6772 80.1025 60.3594 79.3946C61.0416 78.6869 61.4253 77.7271 61.4262 76.7261V67.8024ZM77.5893 46.5265C77.5872 42.7949 76.5188 39.1477 74.5191 36.0461C72.5194 32.9444 69.6782 30.5276 66.3548 29.1011C63.0313 27.6746 59.3749 27.3025 55.8476 28.0319C52.3204 28.7611 49.0808 30.5592 46.5383 33.1986C43.9959 35.8381 42.2648 39.2003 41.5639 42.8604C40.863 46.5204 41.2238 50.3139 42.6007 53.7613C43.9775 57.2086 46.3086 60.1549 49.2992 62.2279C52.2898 64.3008 55.8057 65.4073 59.4023 65.4073C64.2252 65.4073 68.8506 63.4197 72.2612 59.8817C75.6718 56.3438 77.5884 51.5452 77.5893 46.5413V46.5265ZM72.3747 43.504L66.7689 49.1726L68.0921 57.1774C68.1297 57.4088 68.1047 57.6465 68.0199 57.8641C67.9352 58.0818 67.7939 58.2707 67.6119 58.41C67.4287 58.5478 67.2119 58.6295 66.9861 58.6458C66.7604 58.6621 66.5348 58.6123 66.3349 58.5023L59.4023 54.7379L52.4732 58.517C52.2725 58.6316 52.0446 58.6848 51.816 58.6707C51.5873 58.6564 51.3672 58.5753 51.1811 58.4366C50.9951 58.2981 50.8506 58.1076 50.7645 57.8874C50.6785 57.6671 50.6542 57.4261 50.6947 57.1921L52.0179 49.1873L46.4156 43.5187C46.2529 43.3555 46.1376 43.1483 46.0828 42.9205C46.028 42.6927 46.0359 42.4536 46.1055 42.2303C46.1752 42.0069 46.3038 41.8083 46.4769 41.6571C46.6499 41.5057 46.8603 41.4079 47.0843 41.3745L54.8315 40.2046L58.3352 32.9232C58.4462 32.7265 58.6049 32.5633 58.7955 32.4498C58.9862 32.3365 59.2021 32.2768 59.4218 32.2768C59.6416 32.2768 59.8575 32.3365 60.0482 32.4498C60.2388 32.5633 60.3975 32.7265 60.5085 32.9232L63.9731 40.2046L71.7203 41.3745C71.9438 41.4086 72.1537 41.5068 72.3263 41.658C72.4989 41.8092 72.6274 42.0074 72.6973 42.2303C72.7672 42.4532 72.7757 42.6919 72.7218 42.9196C72.668 43.1472 72.5539 43.3547 72.3925 43.5187L72.3747 43.504ZM68.9244 43.4819L62.9593 42.5998C62.7649 42.5702 62.5803 42.4923 62.4211 42.3728C62.262 42.2532 62.133 42.0957 62.0452 41.9134L59.4023 36.3222L56.7416 41.9134C56.6551 42.096 56.5269 42.254 56.3683 42.3735C56.2096 42.4931 56.0252 42.5708 55.831 42.5998L49.8837 43.4966L54.1877 47.8478C54.3285 47.989 54.4344 48.1634 54.4963 48.3561C54.5582 48.5489 54.5744 48.7542 54.5434 48.9548L53.5296 55.0996C55.4374 53.9763 57.4013 52.9587 59.413 52.0512C61.4246 52.9587 63.3885 53.9763 65.2963 55.0996L64.279 48.9548C64.248 48.7542 64.2641 48.5489 64.3261 48.3561C64.388 48.1634 64.4939 47.989 64.6347 47.8478L68.9244 43.4819Z" fill="white"/>
</g>
<defs>
<clipPath id="clip0_262_154">
<rect width="80" height="83" fill="white"/>
</clipPath>
</defs>
</svg>
