<svg width="92" height="77" viewBox="0 0 92 77" fill="none" xmlns="http://www.w3.org/2000/svg">
<g clip-path="url(#clip0_262_156)">
<path d="M42.6079 75.4716C42.4212 75.4716 42.2342 75.4055 42.0842 75.2805C41.7548 75.0168 41.6799 74.5463 41.9202 74.2021L42.6081 74.6566L41.927 74.1872V74.1938C41.8447 74.1938 41.4556 73.9593 40.9468 73.9593C40.7 73.9593 40.4972 74.0175 40.3626 74.1201C40.3558 74.1201 40.3558 74.1201 40.3558 74.128C40.0186 74.3925 39.4947 74.3625 39.1953 74.0108C38.9412 73.7167 38.9488 73.2909 39.1805 72.9974C39.4877 72.3885 38.6266 71.6251 38.1482 71.3458C37.8338 71.1695 37.2348 71.2061 36.9499 71.2877C36.7184 71.3459 36.4861 71.309 36.2913 71.1769C36.2846 71.1625 36.2766 71.1627 36.254 71.155C35.9552 70.9571 35.6556 70.4947 35.7457 70.1571C35.9029 69.5838 35.2515 68.6229 34.0247 68.1087C33.2089 67.7635 32.4525 67.9837 32.4377 67.9982C32.1381 68.1826 31.7563 68.1895 31.4865 67.9982C31.2096 67.8072 31.0604 67.4845 31.1355 67.1614C31.2472 66.7064 31.1653 66.273 30.8804 65.8406C30.2071 64.7835 28.5988 64.0638 27.8869 63.9093C27.5655 63.8143 27.3334 63.8953 27.1086 64.0861C26.8924 64.2327 26.5699 64.2618 26.3534 64.2182C20.8901 63.3879 17.7246 59.0422 17.5891 58.8509C17.4399 58.6456 17.4024 58.3819 17.4845 58.1393L24.4375 37.2466C24.5491 36.9084 24.8715 36.6812 25.2235 36.6812C25.2454 36.6812 25.276 36.6882 25.3056 36.6882C25.8671 36.7395 39.1279 37.9877 41.111 38.2963C41.7025 38.3845 42.3539 38.4873 43.1171 38.6415C43.4019 38.6931 43.6332 38.8908 43.7309 39.1555C43.8278 39.4271 43.7754 39.7206 43.5956 39.941C41.0734 43.0241 36.4564 47.2302 35.1544 48.3976C35.3336 49.1094 35.9326 50.5265 37.8781 50.5265C39.7118 50.5049 41.6873 48.706 43.2741 47.26C44.3437 46.2834 45.197 45.5126 45.9752 45.2555C46.8064 44.9839 48.939 44.5068 52.3072 43.8384C52.6285 43.7577 52.9657 43.9119 53.1527 44.169L62.5449 57.5448C62.5894 57.5738 65.95 60.8701 67.1774 62.808C67.5443 63.3732 67.7085 63.799 67.7085 64.1735C67.7085 65.7008 66.3085 68.1089 64.1317 68.4095C62.4103 68.6597 60.2324 67.9916 58.8554 67.5805L58.5636 67.4919C58.4214 67.4484 58.2559 67.3748 58.0692 67.2866C58.3165 68.2184 57.9267 69.7529 55.9139 71.4197C55.0085 72.1753 54.1028 72.565 53.235 72.565C52.1799 72.565 51.5806 71.9776 51.5214 71.9118L50.6307 71.3394C49.4855 73.0713 47.8023 73.5855 47.0461 73.732C46.3204 74.5765 45.2871 75.0247 44.0227 75.0247C43.8199 75.0247 43.6182 75.0094 43.4313 74.9944C43.3644 75.0679 43.281 75.1489 43.1922 75.2292C43.0348 75.3908 42.8176 75.4716 42.6079 75.4716ZM43.2445 73.3282C43.2517 73.3282 43.2595 73.3282 43.2665 73.3282C43.4986 73.3721 43.7528 73.4019 44.0227 73.4019C44.8758 73.4019 45.4968 73.115 45.9081 72.5203C46.0505 72.3226 46.2748 72.1904 46.5299 72.175C46.604 72.1684 48.6101 71.9629 49.5761 69.8485C49.6729 69.6283 49.8677 69.4664 50.0992 69.4006C50.3393 69.3269 50.5855 69.3782 50.7951 69.5032L52.5844 70.6779C52.8832 70.9203 53.7965 71.0521 54.8445 70.1784C56.4756 68.8284 56.543 67.8585 56.468 67.69C56.2513 67.4329 53.385 64.5119 52.2998 63.418C51.9999 63.1095 51.9932 62.6324 52.277 62.3095C52.5688 62.0013 53.0552 61.9496 53.4002 62.2069C55.1509 63.5132 58.2268 65.6866 59.05 65.9434L59.3496 66.0318C60.5694 66.3984 62.4928 66.9637 63.8913 66.8095C65.0816 66.6408 66.0474 65.0989 66.0474 64.1737C66.0474 64.1737 66.0021 64.0273 65.77 63.6674C64.6478 61.884 61.3101 58.6168 61.2803 58.5798L52.105 45.5351C48.386 46.2838 47.0015 46.6357 46.4995 46.798C46.0585 46.9377 45.2122 47.7083 44.3966 48.4495C42.6081 50.0866 40.378 52.1201 37.9309 52.1573C34.6683 52.1573 33.575 49.5513 33.4406 48.1703C33.4178 47.9211 33.5155 47.664 33.7105 47.4953C33.7626 47.4514 38.4173 43.3104 41.3961 39.9849C41.2389 39.9557 41.0964 39.9336 40.969 39.9191C39.1807 39.6401 28.5766 38.6277 25.8071 38.3702L19.1911 58.236C19.9699 59.1604 22.5515 61.9059 26.421 62.5885C26.9749 62.2735 27.6332 62.1849 28.2542 62.3248C29.2951 62.5527 31.3149 63.4625 32.2879 64.9753C32.5497 65.3856 32.7217 65.819 32.7968 66.2593C33.3288 66.1864 34.0169 66.333 34.6754 66.6122C36.1276 67.2282 37.1379 68.3522 37.3694 69.4974C37.4297 69.5188 37.4741 69.5477 37.5266 69.5844C37.5344 69.5844 37.5416 69.5844 37.5492 69.5844C38.0959 69.5844 38.5823 69.7096 38.9937 69.9522C39.8916 70.473 40.6246 71.2953 40.8426 72.1912C40.9247 72.2274 40.9994 72.2787 41.0669 72.3379C41.9641 72.3661 42.8096 72.7552 43.2445 73.3282Z" fill="white"/>
<path d="M30.6867 70.7225L30.7237 70.7807C31.0459 71.1628 31.405 71.5441 31.7717 71.8376C32.0781 72.1025 32.3923 72.278 32.6544 72.3079H32.6692L33.0517 72.1025L33.0962 72.0723C33.463 71.8821 33.9118 71.5737 34.3458 71.2657M29.2791 68.7986L29.8634 69.3717L30.4468 69.9438M28.9351 70.7807C28.8974 70.605 28.8828 70.4141 28.8906 70.2522C28.9054 69.4887 29.2424 68.872 29.2723 68.7986M23.8464 65.6273L23.8534 65.6128L23.8464 65.6273ZM25.5904 63.2926L25.6052 63.2782L25.5904 63.2926ZM31.1575 67.081C31.2474 66.7868 31.4945 66.5813 31.7941 66.5233L31.1575 67.081ZM34.4585 71.1628L35.7528 70.1639H35.7459C35.8278 69.8857 35.7081 69.5181 35.453 69.1807C35.1468 68.7549 34.6375 68.3583 34.0316 68.1089C32.9243 67.6386 32.5347 67.918 32.5347 67.918C32.2136 68.2264 31.6816 68.2264 31.3603 67.918C31.1655 67.7123 31.0834 67.4328 31.136 67.1838V67.1691L31.1579 67.081C31.3081 66.2884 30.814 65.5979 30.1632 65.0549L30.1326 65.0256C29.3772 64.4089 28.434 64.027 27.9101 63.9093L27.8655 63.8952C27.7231 63.8658 27.5885 63.8658 27.4838 63.8952C27.3564 63.924 27.2367 63.9832 27.1388 64.056L27.0042 64.1732L26.8926 64.2914L26.8177 64.3787L25.291 66.4056C25.1783 66.6256 24.8494 67.4181 25.291 67.8739C25.7251 68.3287 26.0772 68.6955 26.4132 68.931C26.705 69.1366 27.0124 69.2684 27.4237 69.2976C27.8577 69.3423 28.2323 69.3121 28.5389 69.2094C28.8235 69.1208 29.0698 68.9747 29.2725 68.7984H29.2793L29.3101 68.7692C29.6465 68.475 30.1702 68.4897 30.4698 68.8282C30.7692 69.1511 30.7547 69.635 30.447 69.9434C30.447 69.9434 30.4403 70.4721 31.0383 71.1477C31.1509 71.2506 31.241 71.3826 31.398 71.5145L30.4253 71.6763L30.0436 71.2361L29.4 71.7492M37.8112 69.6062H37.8258H37.8112ZM37.8258 69.6062C38.2006 69.6207 38.604 69.7234 38.9857 69.9436L37.8258 69.6062ZM38.9857 69.9436C39.5926 70.2967 40.3102 70.9283 40.6624 71.6912L38.9857 69.9436ZM40.6624 71.6912C40.759 71.8968 40.8342 72.1172 40.8717 72.3372C41.2011 72.3372 41.5223 72.3807 41.8219 72.4544L41.8595 72.4687C42.1969 72.5573 42.5258 72.7036 42.7801 72.88L42.7877 72.8947C43.0943 73.1002 43.3414 73.3794 43.469 73.7023C43.6408 74.1281 43.6258 74.5972 43.3264 75.0534C43.2966 75.1113 43.2515 75.1703 43.192 75.2287C42.997 75.4199 42.7419 75.6555 42.4956 75.8757C42.2262 76.0958 41.9413 76.3015 41.6871 76.4478V76.4334C41.2007 76.6971 40.5649 76.9185 39.9511 76.903H39.9133H39.9057C39.337 76.8885 38.7686 76.6973 38.3196 76.2133C38.1396 76.0223 38.0052 75.8459 37.9075 75.6847H37.9003C37.3768 75.7875 36.6577 75.7428 35.9845 75.4938H35.9696L35.9472 75.4789C35.3709 75.2589 34.8022 74.8915 34.391 74.3626C34.1656 74.0689 34.0312 73.7615 33.9641 73.4529L33.904 73.4821L33.8443 73.526C33.4174 73.746 33.0211 73.8934 32.6848 73.9224H32.5128C31.8842 73.8642 31.2778 73.5405 30.7237 73.0855C30.2599 72.7189 29.8334 72.2487 29.4591 71.8227L29.3998 71.7492C29.1449 71.441 29.0025 71.1181 28.9354 70.7803C28.4486 70.9279 27.8873 70.9858 27.2517 70.9121C26.526 70.8393 25.9724 70.6192 25.4632 70.252C24.9918 69.9287 24.5873 69.5032 24.0861 68.9892C22.8068 67.6537 23.7418 65.8179 23.8467 65.6269L23.9289 65.4948L25.4929 63.4245L25.5906 63.2922L25.6649 63.2043L25.8221 63.0432L25.8825 62.984L26.0616 62.823L26.0922 62.793C26.3541 62.6028 26.6984 62.4117 27.1247 62.309C27.4617 62.2355 27.8432 62.2209 28.2544 62.3235H28.285C28.9809 62.4844 30.2158 62.9985 31.1959 63.7919L31.2105 63.8062H31.2261C32.0112 64.452 32.6398 65.2891 32.805 66.2725C33.3132 66.2433 33.942 66.3172 34.6756 66.6109C35.5663 66.9922 36.3226 67.58 36.8011 68.2401C37.1075 68.6661 37.3173 69.1364 37.3924 69.5911C37.5118 69.5911 37.6464 69.5911 37.7739 69.5911H37.7819L37.8117 69.6056H37.8186M38.1776 73.7172L39.21 72.9096C39.2782 72.7338 39.248 72.543 39.1657 72.3664C38.9638 71.9407 38.5219 71.5598 38.1484 71.3396C38.021 71.2661 37.8558 71.2367 37.6914 71.2214H37.6768C37.4297 71.2067 37.1902 71.2367 37.0183 71.2804L36.3067 71.8378L36.2918 71.8525L35.6414 72.3375C35.5959 72.484 35.5435 72.704 35.5583 72.9251C35.5583 73.0859 35.6106 73.2478 35.7083 73.3799C35.9181 73.6591 36.2177 73.8493 36.531 73.9667L36.5834 73.982C36.9434 74.114 37.2953 74.143 37.5344 74.0993L37.7135 74.0112C37.8338 73.952 37.9978 73.8491 38.1776 73.7172ZM40.3478 74.1285L39.7865 74.5688L39.7418 74.6133L39.4799 74.8035C39.4877 74.9509 39.4947 75.0828 39.5403 75.1273C39.6441 75.2446 39.7943 75.2883 39.9515 75.2883C40.2659 75.2883 40.6244 75.1709 40.9013 75.0246H40.9095V75.0093C41.0439 74.9362 41.2309 74.8035 41.4182 74.6425C41.5678 74.5106 41.7248 74.3782 41.8673 74.2316L41.8297 74.2024C41.7172 74.1287 41.5748 74.0693 41.4106 74.0257H41.4028C41.0291 73.9228 40.602 73.9228 40.3558 74.1285H40.3478ZM61.1824 58.4621L52.1046 45.527C51.1694 45.718 50.1143 45.938 49.1262 46.1583C47.9741 46.4085 46.9785 46.6435 46.4922 46.7896C46.0653 46.9372 45.2951 47.6267 44.4112 48.449C42.6227 50.064 40.3777 52.1196 37.9307 52.149C34.3391 52.1935 33.5904 49.0659 33.463 48.2727L33.4404 48.1551L33.4336 48.0972H33.4404C33.4404 47.8769 33.5383 47.6414 33.7172 47.4805C33.732 47.4805 39.4651 42.4004 42.3087 38.9207L42.6379 38.5241L42.6535 38.4941L42.9829 38.0538C45.7294 34.2657 49.6062 34.1628 49.613 34.1628C49.6286 34.1628 54.29 34.3394 57.8748 36.1742C58.5342 36.5126 59.6266 36.7765 60.9286 36.9818C62.5898 37.2312 64.5877 37.3788 66.4893 37.4521H66.4969H66.5266C66.8638 37.4666 67.1702 37.687 67.2829 38.0099L74.1827 58.7412C74.2943 59.0935 74.1601 59.49 73.8305 59.6809L66.9162 63.9238C66.5264 64.1587 66.0173 64.0413 65.7782 63.6603C64.633 61.869 61.2877 58.594 61.2805 58.5793L61.1824 58.4621ZM53.1529 44.1615L62.4995 57.4932C62.889 57.86 65.3437 60.3124 66.7062 62.1329L72.4085 58.6385L65.8907 39.0523C64.1089 38.9642 62.2683 38.8176 60.6813 38.5674C59.2141 38.3473 57.9426 38.0387 57.1112 37.6131C53.8633 35.9394 49.6282 35.7927 49.6126 35.7927C49.6058 35.7927 46.5823 35.8664 44.3224 38.9931L44.3141 39.0078L43.9852 39.4489L43.9406 39.5071L43.6032 39.9329H43.5956L43.5809 39.9621C41.0734 43.016 36.434 47.2454 35.1466 48.4051C35.3114 49.051 35.9029 50.5483 37.9159 50.534C39.719 50.5046 41.7023 48.6982 43.281 47.2599C44.3141 46.3199 45.1972 45.5125 45.9754 45.2631C46.5369 45.0724 47.5928 44.823 48.7673 44.5727C49.905 44.3233 51.2219 44.0588 52.3071 43.8386C52.6437 43.7657 52.9731 43.912 53.1529 44.1615Z" fill="white"/>
<path d="M82.1848 31.6347L67.1118 36.4648L74.9478 60.0009L90.0128 55.1704L82.1848 31.6347ZM65.8177 35.173L82.4534 29.8436C82.8879 29.7109 83.3593 29.9465 83.5015 30.3725L91.8389 55.4494C91.9803 55.8607 91.7408 56.3302 91.3069 56.462L74.6712 61.7922C74.2441 61.924 73.7725 61.6893 73.6298 61.2782L65.2857 36.2009C65.1433 35.7749 65.3834 35.3044 65.8177 35.173Z" fill="white"/>
<path d="M9.42529 29.6366L26.0624 34.9659C26.4964 35.0976 26.7355 35.5679 26.5933 35.9936L18.2491 61.071C18.1066 61.4821 17.6428 61.7168 17.2088 61.585L0.571985 56.2548C0.137938 56.1229 -0.101135 55.6537 0.041085 55.2422L8.38502 30.1652C8.52766 29.7395 8.99125 29.5039 9.42529 29.6366ZM24.767 36.2578L9.70214 31.4277L1.87412 54.9634L16.9319 59.7939L24.767 36.2578Z" fill="white"/>
<path d="M41.4935 15.8387L37.3486 11.772L38.5199 10.6231L41.4935 13.5391L47.7811 7.37036L48.9541 8.52099L41.4935 15.8387Z" fill="white"/>
<path d="M43.1513 0.0517578C40.856 0.0517578 38.6121 0.719441 36.7038 1.97038C34.7952 3.2213 33.3076 4.99932 32.4293 7.07954C31.5509 9.15976 31.3211 11.4488 31.7689 13.6572C32.2166 15.8655 33.3219 17.894 34.945 19.4861C36.5681 21.0783 38.636 22.1626 40.8872 22.6018C43.1385 23.041 45.472 22.8156 47.5927 21.9539C49.7133 21.0924 51.5257 19.6331 52.801 17.761C54.0761 15.8888 54.7569 13.6878 54.7569 11.4362C54.7569 8.41683 53.5341 5.52116 51.3577 3.38617C49.1811 1.25118 46.2293 0.0517578 43.1513 0.0517578ZM43.1513 21.1943C41.1839 21.1943 39.2606 20.6219 37.6248 19.5497C35.9889 18.4775 34.7139 16.9535 33.9611 15.1704C33.2082 13.3874 33.0111 11.4253 33.3949 9.53247C33.7787 7.63959 34.7262 5.90086 36.1174 4.53618C37.5085 3.17148 39.281 2.24212 41.2107 1.8656C43.1404 1.48908 45.1405 1.68233 46.9582 2.42089C48.7758 3.15945 50.3295 4.41016 51.4225 6.01487C52.5155 7.61957 53.099 9.5062 53.099 11.4362C53.099 14.0242 52.0509 16.5062 50.1853 18.3362C48.3198 20.1661 45.7896 21.1943 43.1513 21.1943Z" fill="white"/>
<path d="M74.0164 33.4641L79.2916 48.1603" stroke="white" stroke-width="8"/>
<path d="M18.3171 33.9934L14.0969 46.8267" stroke="white" stroke-width="8"/>
</g>
<defs>
<clipPath id="clip0_262_156">
<rect width="92" height="77" fill="white"/>
</clipPath>
</defs>
</svg>
