<svg width="85" height="97" viewBox="0 0 85 97" fill="none" xmlns="http://www.w3.org/2000/svg">
<g clip-path="url(#clip0_260_16)">
<path d="M52.2432 59.2561H9.7279C8.22328 59.2561 7.00354 60.3311 7.00354 61.6571V69.0521C7.00354 70.3782 8.22328 71.4531 9.7279 71.4531H52.2432C53.7478 71.4531 54.9676 70.3782 54.9676 69.0521V61.6571C54.9676 60.3311 53.7478 59.2561 52.2432 59.2561Z" fill="white"/>
<path d="M52.8659 97H8.17847C3.66952 97 0 93.677 0 89.5944V7.40571C0 3.32298 3.66952 0 8.17847 0H52.8659C57.3772 0 61.0485 3.32298 61.0485 7.40571V23.1474H29.1218V49.7711H36.2139V57.4648L47.5511 49.7711H61.0485V89.5944C61.0485 93.677 57.3772 97 52.8659 97ZM8.17847 3.87999C6.03287 3.87999 4.28704 5.46192 4.28704 7.40571V89.5944C4.28704 91.5382 6.03287 93.12 8.17847 93.12H52.8659C55.0135 93.12 56.7615 91.5382 56.7615 89.5944V53.6511H48.9787L31.9268 65.2248V53.6511H24.8348V19.2674H56.7615V7.40571C56.7615 5.46192 55.0135 3.87999 52.8659 3.87999H8.17847Z" fill="white"/>
<path d="M58.905 77.7306H2.14355C0.958718 77.7306 0 76.8609 0 75.7906C0 74.7202 0.958718 73.8506 2.14355 73.8506H58.905C60.0901 73.8506 61.0485 74.7202 61.0485 75.7906C61.0485 76.8609 60.0901 77.7306 58.905 77.7306Z" fill="white"/>
<path d="M58.905 13.5118H2.14355C0.958718 13.5118 0 12.6442 0 11.5718C0 10.5014 0.958718 9.63184 2.14355 9.63184H58.905C60.0901 9.63184 61.0485 10.5014 61.0485 11.5718C61.0485 12.6442 60.0901 13.5118 58.905 13.5118Z" fill="white"/>
<path d="M85 53.651H59.797V49.7711H80.713V23.1473H59.797V19.2673H85V53.651Z" fill="white"/>
<path d="M34.0745 8.50255H26.9805V5.01099H34.0745V8.50255Z" fill="#212121"/>
<path d="M34.2022 85.4281C34.2022 87.2639 32.5569 88.7549 30.5263 88.7549C28.498 88.7549 26.8527 87.2639 26.8527 85.4281C26.8527 83.5904 28.498 82.0994 30.5263 82.0994C32.5569 82.0994 34.2022 83.5904 34.2022 85.4281Z" fill="#212121"/>
<path d="M73.7337 34.3857H36.9884V30.5056H73.7337V34.3857Z" fill="#DEDEDE"/>
<path d="M60.871 42.4129H36.9884V38.533H60.871V42.4129Z" fill="#DEDEDE"/>
</g>
<defs>
<clipPath id="clip0_260_16">
<rect width="85" height="97" fill="white"/>
</clipPath>
</defs>
</svg>
