<svg width="85" height="85" viewBox="0 0 85 85" fill="none" xmlns="http://www.w3.org/2000/svg">
<g clip-path="url(#clip0_264_212)">
<path d="M66.2059 58.2123C67.5924 58.943 69.3002 58.4117 70.0275 57.0353C72.3809 52.5897 73.6217 47.5625 73.6217 42.4998C73.6217 25.3436 59.6561 11.3819 42.5001 11.3819C25.3403 11.3819 11.3787 25.3436 11.3787 42.4998C11.3787 59.6597 25.3403 73.6214 42.5001 73.6214C47.4879 73.6214 52.4436 72.4164 56.8327 70.1311C58.2193 69.4144 58.7578 67.6994 58.0377 66.3158C57.3176 64.9364 55.6099 64.3873 54.2194 65.1108C50.5862 67.0078 46.6394 67.9665 42.5001 67.9665C28.4599 67.9665 17.0332 56.5437 17.0332 42.4998C17.0332 28.4633 28.4599 17.0365 42.5001 17.0365C56.54 17.0365 67.9667 28.4633 67.9667 42.4998C67.9667 46.6463 66.9472 50.7569 65.0289 54.3863C64.2948 55.77 64.8222 57.4811 66.2059 58.2123ZM42.5001 0.0585938C34.3035 0.0585938 26.3458 2.40456 19.4897 6.83623C18.1741 7.68473 17.7997 9.4353 18.6483 10.7473C19.5004 12.0594 21.2438 12.4301 22.563 11.5887C28.4956 7.75249 35.398 5.72027 42.5001 5.72027C62.7832 5.72027 79.2795 22.2205 79.2795 42.4998C79.2795 62.7829 62.7832 79.2831 42.5001 79.2831C22.2171 79.2831 5.71694 62.7829 5.71694 42.4998C5.71694 35.4655 7.70995 28.6237 11.4856 22.7232C12.327 21.404 11.942 19.6535 10.6228 18.8121C9.30722 17.9706 7.55666 18.3557 6.71883 19.6713C2.36202 26.4846 0.0588379 34.3852 0.0588379 42.4998C0.0588379 65.9062 19.094 84.9409 42.5001 84.9409C65.9026 84.9409 84.9411 65.9062 84.9411 42.4998C84.9411 19.1008 65.9026 0.0585938 42.5001 0.0585938Z" fill="white"/>
<path d="M46.3636 47.8813C52.7555 47.8813 57.9545 42.4502 57.9545 35.7729C57.9545 29.0957 52.7545 23.6646 46.3636 23.6646H34.7727C33.3504 23.6646 32.1969 24.8695 32.1969 26.3553V42.4998H29.6212C28.1989 42.4998 27.0454 43.7022 27.0454 45.1905C27.0454 46.6788 28.1989 47.8813 29.6212 47.8813H32.1969V50.5719H29.6212C28.1989 50.5719 27.0454 51.7769 27.0454 53.2629C27.0454 54.7485 28.1989 55.9534 29.6212 55.9534H32.1969V58.6445C32.1969 60.13 33.3504 61.335 34.7727 61.335C36.195 61.335 37.3484 60.13 37.3484 58.6445V55.9534H50.2272C51.6495 55.9534 52.8028 54.7485 52.8028 53.2629C52.8028 51.7769 51.6495 50.5719 50.2272 50.5719H37.3484V47.8813H46.3636ZM37.3484 29.0461H46.3636C49.9133 29.0461 52.8028 32.0647 52.8028 35.7729C52.8028 39.4811 49.9133 42.4998 46.3636 42.4998H37.3484V29.0461Z" fill="white"/>
</g>
<defs>
<clipPath id="clip0_264_212">
<rect width="85" height="85" fill="white"/>
</clipPath>
</defs>
</svg>
