<svg width="75" height="96" viewBox="0 0 75 96" fill="none" xmlns="http://www.w3.org/2000/svg">
<g opacity="0.3">
<path d="M26.2194 20.3267H23.7804V43.492H26.2194V20.3267Z" fill="white"/>
</g>
<g opacity="0.3">
<path d="M32.317 20.3267H29.8779V43.492H32.317V20.3267Z" fill="white"/>
</g>
<g opacity="0.3">
<path d="M38.4145 20.3267H35.9755V43.492H38.4145V20.3267Z" fill="white"/>
</g>
<g opacity="0.3">
<path d="M44.5121 20.3267H42.0731V43.492H44.5121V20.3267Z" fill="white"/>
</g>
<g opacity="0.3">
<path d="M50.6097 20.3267H48.1707V43.492H50.6097V20.3267Z" fill="white"/>
</g>
<g opacity="0.3">
<path d="M56.7072 20.3267H54.2682V43.492H56.7072V20.3267Z" fill="white"/>
</g>
<g opacity="0.3">
<path d="M62.8049 20.3267H60.3658V43.492H62.8049V20.3267Z" fill="white"/>
</g>
<g opacity="0.3">
<path d="M68.9023 20.3267H66.4633V43.492H68.9023V20.3267Z" fill="white"/>
</g>
<g opacity="0.3">
<path d="M74.9999 20.3267H72.5609V43.492H74.9999V20.3267Z" fill="white"/>
</g>
<path d="M75 21.8704V18.7817H17.683V45.0358H75V41.9471H20.122V33.4531H75V30.3644H20.122V21.8704H75Z" fill="white"/>
<path d="M63.4146 85.1895H60.9755V71.2903H66.4633V54.3024H60.9755V49.6694H65.2438V46.5806H54.2682V49.6694H58.5365V54.3024H53.0487V55.8468V58.1633H10.3658V13.377H53.0487V15.6935V17.2379H66.4633V0.25H3.04878V58.1633H0V71.2903H3.04878V92.1391H10.3658V71.2903H58.5365V85.1895H56.0975V89.0504H45.1219V92.1391H56.0975V96H63.4146V92.1391H74.3902V89.0504H63.4146V85.1895ZM55.4877 57.3911H64.0243V68.2016H55.4877V61.252V57.3911ZM64.0243 14.1492H55.4877V10.2883V3.33871H64.0243V14.1492ZM5.4878 3.33871H53.0487V10.2883H7.92682V58.1633H5.4878V3.33871ZM2.43902 61.252H53.0487V68.2016H2.43902V61.252ZM7.92682 89.0504H5.4878V71.2903H7.92682V89.0504ZM60.9755 92.9113H58.5365V88.2782H60.9755V92.9113Z" fill="white"/>
</svg>
