<svg width="174" height="134" viewBox="0 0 174 134" fill="none" xmlns="http://www.w3.org/2000/svg">
<path d="M109.517 55.7139C103.069 55.7139 97.793 50.1425 97.793 43.3329V18.5709C97.793 11.7614 103.069 6.18994 109.517 6.18994C115.965 6.18994 121.241 11.7614 121.241 18.5709V43.3329C121.241 50.1425 115.965 55.7139 109.517 55.7139Z" stroke="#FE3F15" stroke-width="10" stroke-miterlimit="10" stroke-linecap="round" stroke-linejoin="round"/>
<path d="M141.758 18.5715C146.615 18.5715 150.552 14.4141 150.552 9.28575C150.552 4.15737 146.615 0 141.758 0C136.902 0 132.965 4.15737 132.965 9.28575C132.965 14.4141 136.902 18.5715 141.758 18.5715Z" fill="#FE3F15"/>
<path d="M165.207 61.905C170.063 61.905 174 57.7476 174 52.6192C174 47.4909 170.063 43.3335 165.207 43.3335C160.35 43.3335 156.414 47.4909 156.414 52.6192C156.414 57.7476 160.35 61.905 165.207 61.905Z" fill="#FE3F15"/>
<path d="M168.138 6.18994L138.827 55.7139" stroke="#FE3F15" stroke-width="5" stroke-miterlimit="10" stroke-linecap="round" stroke-linejoin="round"/>
<path d="M80.2069 6.18994H15.7241C9.27586 6.18994 4 11.7614 4 18.5709V117.619C4 124.428 9.27586 130 15.7241 130H156.414C162.862 130 168.138 124.428 168.138 117.619V74.2854" stroke="white" stroke-width="8" stroke-miterlimit="10" stroke-linecap="round" stroke-linejoin="round"/>
<path d="M27.4482 92.8574H39.1724" stroke="#03EEFF" stroke-width="2" stroke-miterlimit="10" stroke-linecap="round" stroke-linejoin="round"/>
<path d="M62.6206 92.8574H74.3447" stroke="#03EEFF" stroke-width="2" stroke-miterlimit="10" stroke-linecap="round" stroke-linejoin="round"/>
<path d="M97.793 92.8574H109.517" stroke="#03EEFF" stroke-width="2" stroke-miterlimit="10" stroke-linecap="round" stroke-linejoin="round"/>
<path d="M132.966 92.8574H144.69" stroke="#03EEFF" stroke-width="2" stroke-miterlimit="10" stroke-linecap="round" stroke-linejoin="round"/>
<path d="M27.4482 107.622H39.1724" stroke="#03EEFF" stroke-width="2" stroke-miterlimit="10" stroke-linecap="round" stroke-linejoin="round"/>
<path d="M62.6206 107.622H74.3447" stroke="#03EEFF" stroke-width="2" stroke-miterlimit="10" stroke-linecap="round" stroke-linejoin="round"/>
<path d="M97.793 107.622H109.517" stroke="#03EEFF" stroke-width="2" stroke-miterlimit="10" stroke-linecap="round" stroke-linejoin="round"/>
<path d="M132.966 107.622H144.69" stroke="#03EEFF" stroke-width="2" stroke-miterlimit="10" stroke-linecap="round" stroke-linejoin="round"/>
<path d="M27.4482 78.0928H39.1724" stroke="#03EEFF" stroke-width="2" stroke-miterlimit="10" stroke-linecap="round" stroke-linejoin="round"/>
<path d="M62.6206 78.0928H74.3447" stroke="#03EEFF" stroke-width="2" stroke-miterlimit="10" stroke-linecap="round" stroke-linejoin="round"/>
<path d="M97.793 78.0928H109.517" stroke="#03EEFF" stroke-width="2" stroke-miterlimit="10" stroke-linecap="round" stroke-linejoin="round"/>
<path d="M132.966 78.0928H144.69" stroke="#03EEFF" stroke-width="2" stroke-miterlimit="10" stroke-linecap="round" stroke-linejoin="round"/>
<path d="M4 30.9526H80.2069" stroke="white" stroke-width="8" stroke-miterlimit="10" stroke-linecap="round" stroke-linejoin="round"/>
</svg>
