<svg width="176" height="130" viewBox="0 0 176 130" fill="none" xmlns="http://www.w3.org/2000/svg">
<path fill-rule="evenodd" clip-rule="evenodd" d="M22.6546 0.00392939C23.3652 0.0210869 24.0411 0.24711 24.547 0.636639L76.723 41.3246C77.2476 41.7363 77.542 42.293 77.542 42.8734C77.542 43.4537 77.2476 44.0104 76.723 44.4221L62.8316 55.2549C62.5698 55.4599 62.2587 55.6226 61.9161 55.7335C61.5735 55.8445 61.2062 55.9018 60.8352 55.9018C60.4642 55.9018 60.0969 55.8445 59.7543 55.7335C59.4117 55.6226 59.1006 55.4599 58.8388 55.2549L6.68361 14.5831C6.42074 14.379 6.21214 14.1365 6.06982 13.8693C5.92749 13.6022 5.85423 13.3156 5.85423 13.0263C5.85423 12.737 5.92749 12.4504 6.06982 12.1833C6.21214 11.9161 6.42074 11.6736 6.68361 11.4695L20.5542 0.636639C20.8297 0.424235 21.1584 0.258489 21.5198 0.149627C21.8812 0.0407663 22.2675 -0.00888962 22.6546 0.00392939Z" fill="#FED883"/>
<path fill-rule="evenodd" clip-rule="evenodd" d="M22.6562 0.00192573C23.3673 0.0196849 24.0435 0.246665 24.5489 0.637169L76.7203 41.3259C77.2434 41.7374 77.5369 42.2932 77.5369 42.8726C77.5369 43.452 77.2434 44.0078 76.7203 44.4193L62.8329 55.2534C62.5711 55.4586 62.2599 55.6214 61.9171 55.7326C61.5744 55.8437 61.2068 55.9008 60.8356 55.9008C60.4644 55.9008 60.0969 55.8437 59.7541 55.7326C59.4114 55.6214 59.1001 55.4586 58.8383 55.2534L49.5672 48.0237L59.8177 40.0258C60.3408 39.6143 60.6343 39.0583 60.6343 38.4789C60.6343 37.8995 60.3408 37.3437 59.8177 36.9322L16.9174 3.47334L20.5544 0.637169C20.8298 0.424172 21.1586 0.257682 21.5203 0.148384C21.8819 0.0390859 22.2686 -0.0107289 22.6562 0.00192573Z" fill="#FCAD26"/>
<path fill-rule="evenodd" clip-rule="evenodd" d="M22.6541 0.0039094C23.3647 0.0205154 24.0406 0.247208 24.5465 0.636619C25.6525 1.49532 25.6525 2.89155 24.5465 3.75025L4.8115 19.14C3.71035 20.0025 1.9199 20.0025 0.818752 19.14C-0.273417 18.2831 -0.273417 16.8995 0.818752 16.0426L15.0641 4.92191L20.5537 0.636619C21.1106 0.207353 21.8716 -0.0218299 22.6541 0.0039094Z" fill="#FE3F15"/>
<path fill-rule="evenodd" clip-rule="evenodd" d="M114.882 18.8638C115.502 18.8629 116.105 19.0214 116.597 19.3146C117.09 19.6077 117.444 20.0192 117.607 20.4855L120.643 29.2101C120.755 29.5323 120.772 29.8703 120.692 30.1983C120.611 30.5263 120.436 30.8358 120.18 31.1032C119.923 31.3705 119.592 31.5887 119.211 31.7412C118.83 31.8937 118.409 31.9764 117.981 31.9832L100.908 32.2107C100.476 32.2169 100.048 32.1455 99.6571 32.0022C99.2662 31.8588 98.9228 31.6473 98.6535 31.3839C98.3842 31.1206 98.1961 30.8124 98.1038 30.4834C98.0115 30.1543 98.0174 29.8133 98.1212 29.4863L101.012 20.5181C101.166 20.0458 101.518 19.6272 102.011 19.3277C102.504 19.0283 103.111 18.8653 103.736 18.8643L114.882 18.8638Z" fill="#156169"/>
<path fill-rule="evenodd" clip-rule="evenodd" d="M34.3817 8.3042L38.3708 11.4149L30.6182 17.4691C30.3566 17.6737 30.0457 17.836 29.7034 17.9468C29.3612 18.0575 28.9943 18.1146 28.6237 18.1146C28.2532 18.1146 27.8862 18.0575 27.544 17.9468C27.2017 17.836 26.8909 17.6737 26.6292 17.4691C26.366 17.265 26.1572 17.0223 26.0147 16.755C25.8721 16.4877 25.7988 16.2011 25.7988 15.9116C25.7988 15.6221 25.8721 15.3355 26.0147 15.0682C26.1572 14.8009 26.366 14.5582 26.6292 14.3541L34.3817 8.3042ZM49.8758 20.3868L53.8703 23.5019L46.1123 29.5518C45.8505 29.757 45.5393 29.9198 45.1965 30.031C44.8538 30.1421 44.4862 30.1993 44.115 30.1993C43.7438 30.1993 43.3763 30.1421 43.0335 30.031C42.6907 29.9198 42.3795 29.757 42.1177 29.5518C41.8546 29.3476 41.6457 29.1049 41.5032 28.8376C41.3607 28.5703 41.2873 28.2837 41.2873 27.9942C41.2873 27.7048 41.3607 27.4181 41.5032 27.1508C41.6457 26.8835 41.8546 26.6408 42.1177 26.4367L49.8758 20.3868ZM65.3643 32.4694L69.3479 35.5759L61.6064 41.6172C61.3446 41.8224 61.0334 41.9853 60.6906 42.0964C60.3478 42.2076 59.9803 42.2648 59.6091 42.2648C59.2379 42.2648 58.8703 42.2076 58.5276 42.0964C58.1848 41.9853 57.8736 41.8224 57.6118 41.6172C57.087 41.2056 56.7924 40.6487 56.7924 40.0683C56.7924 39.4878 57.087 38.9309 57.6118 38.5193L65.3643 32.4694Z" fill="#FE3F15"/>
<path fill-rule="evenodd" clip-rule="evenodd" d="M113.489 106.029C114.068 106.061 114.62 106.231 115.07 106.516C115.07 106.516 129.105 115.469 144.953 109.743C152.97 106.846 159.464 106.104 164.563 106.954C169.662 107.803 173.234 110.443 174.503 113.619C177.041 119.97 171.062 127.794 159.198 129.414C139.892 132.053 122.853 125.819 111.763 110.035C111.758 110.031 111.493 109.921 111.493 109.921L111.576 109.871C111.364 109.566 110.993 109.535 110.786 109.223C110.558 108.876 110.453 108.489 110.48 108.1C110.508 107.711 110.667 107.336 110.942 107.011C111.217 106.686 111.598 106.424 112.045 106.251C112.493 106.079 112.991 106.002 113.489 106.029Z" fill="#0E3F44"/>
<path fill-rule="evenodd" clip-rule="evenodd" d="M113.459 106.026C113.47 106.027 113.481 106.028 113.492 106.03C114.07 106.061 114.621 106.23 115.071 106.515C115.071 106.515 129.105 115.467 144.953 109.741C152.97 106.844 159.464 106.103 164.563 106.952C169.661 107.801 173.236 110.444 174.505 113.62C175.178 115.303 175.233 117.086 174.758 118.833C174.681 118.558 174.613 118.284 174.505 118.014C173.236 114.838 169.661 112.195 164.563 111.346C159.464 110.497 152.97 111.238 144.953 114.135C129.105 119.861 115.071 110.908 115.071 110.908C114.621 110.624 114.07 110.455 113.492 110.423C113.046 110.399 112.599 110.458 112.188 110.595C112.049 110.404 111.901 110.228 111.764 110.033C111.759 110.03 111.494 109.922 111.494 109.922L111.577 109.872C111.365 109.567 110.992 109.537 110.785 109.225C110.558 108.88 110.452 108.494 110.478 108.107C110.503 107.72 110.66 107.345 110.931 107.021C111.203 106.696 111.58 106.433 112.024 106.259C112.468 106.085 112.963 106.005 113.459 106.028L113.459 106.026Z" fill="#156169"/>
<path fill-rule="evenodd" clip-rule="evenodd" d="M110.121 27.0532C121.918 27.0536 133.721 30.5558 142.707 37.5617C160.676 51.5759 160.673 74.3569 142.707 88.369C119.832 106.207 115.278 109.775 115.278 109.775C115.016 109.98 114.705 110.143 114.362 110.254C114.02 110.365 113.652 110.422 113.281 110.422C112.91 110.422 112.543 110.365 112.201 110.254C111.858 110.143 111.547 109.98 111.285 109.775L50.1046 62.0653C49.8417 61.8612 49.6331 61.6187 49.4908 61.3516C49.3485 61.0844 49.2752 60.7978 49.2752 60.5085C49.2752 60.2192 49.3485 59.9327 49.4908 59.6655C49.6331 59.3983 49.8417 59.1558 50.1046 58.9517C50.1046 58.9517 54.6795 55.3996 77.5547 37.5617C86.5394 30.5568 98.3234 27.053 110.121 27.0532Z" fill="#FE3F15"/>
<path fill-rule="evenodd" clip-rule="evenodd" d="M110.245 39.9292C117.788 39.9292 125.327 42.1712 131.062 46.643C142.533 55.5883 142.534 70.1657 131.062 79.109C119.593 88.0525 100.898 88.0525 89.429 79.109C77.9574 70.1636 77.957 55.5862 89.429 46.643C95.1636 42.1712 102.703 39.9292 110.245 39.9292Z" fill="white"/>
<path fill-rule="evenodd" clip-rule="evenodd" d="M102.842 49.0749C103.556 49.0962 104.232 49.3279 104.735 49.7233L127.111 67.1728C127.635 67.5844 127.93 68.1412 127.93 68.7215C127.93 69.3019 127.635 69.8586 127.111 70.2702C126.583 70.6794 125.869 70.909 125.125 70.909C124.38 70.909 123.666 70.6794 123.139 70.2702L100.763 52.8209C100.238 52.4093 99.9435 51.8526 99.9435 51.2722C99.9435 50.6919 100.238 50.1351 100.763 49.7235C101.034 49.5103 101.359 49.3427 101.716 49.2312C102.074 49.1197 102.457 49.0666 102.842 49.0751V49.0749Z" fill="#03EEFF"/>
<path fill-rule="evenodd" clip-rule="evenodd" d="M100.95 59.7621C101.67 59.7794 102.355 60.0114 102.863 60.4105L113.406 68.6325C113.669 68.8366 113.878 69.0793 114.02 69.3465C114.162 69.6137 114.236 69.9 114.236 70.1893C114.236 70.4786 114.162 70.7651 114.02 71.0323C113.878 71.2995 113.669 71.542 113.406 71.7461C113.144 71.9511 112.833 72.114 112.491 72.225C112.148 72.336 111.781 72.393 111.41 72.393C111.039 72.393 110.671 72.336 110.329 72.225C109.986 72.114 109.675 71.9511 109.413 71.7461L98.87 63.5242C98.6071 63.32 98.3985 63.0775 98.2561 62.8104C98.1138 62.5432 98.0405 62.2567 98.0405 61.9674C98.0405 61.678 98.1138 61.3917 98.2561 61.1246C98.3985 60.8574 98.6071 60.6147 98.87 60.4105C99.1414 60.1973 99.4659 60.0297 99.8236 59.9182C100.181 59.8067 100.565 59.7536 100.95 59.7621Z" fill="#03EEFF"/>
<path fill-rule="evenodd" clip-rule="evenodd" d="M110.245 39.9277C117.788 39.9277 125.325 42.1708 131.06 46.6425C132.018 47.3898 132.87 48.1877 133.668 49.0069C128.43 45.902 122.163 44.3212 115.879 44.3212C108.337 44.3212 100.799 46.5645 95.0646 51.0363C84.5507 59.2326 83.6992 72.1515 92.4566 81.14C91.4071 80.5181 90.3877 79.8568 89.4304 79.1104C77.9588 70.1649 77.9584 55.5858 89.4304 46.6425C95.165 42.1708 102.703 39.9277 110.245 39.9277Z" fill="#DEDEDE"/>
<path fill-rule="evenodd" clip-rule="evenodd" d="M110.119 22.6611C112.952 22.6612 115.787 22.8751 118.581 23.279L120.645 29.2087C120.758 29.5313 120.775 29.8696 120.695 30.1981C120.615 30.5266 120.44 30.8365 120.183 31.1042C119.926 31.372 119.594 31.5905 119.213 31.7431C118.831 31.8957 118.41 31.9783 117.982 31.9848L100.908 32.2122C100.477 32.2181 100.049 32.1465 99.6585 32.0031C99.2679 31.8596 98.9249 31.648 98.6558 31.3847C98.3867 31.1214 98.1989 30.8134 98.1067 30.4845C98.0146 30.1555 98.0206 29.8145 98.1243 29.4876L100.034 23.5622C103.354 22.984 106.73 22.661 110.119 22.6611Z" fill="#0E3F44"/>
<path fill-rule="evenodd" clip-rule="evenodd" d="M110.119 27.0552C121.916 27.0555 133.722 30.557 142.708 37.5629C153.127 45.6887 157.461 56.7552 155.797 67.3575C154.591 59.6761 150.256 52.2377 142.708 46.3504C133.722 39.3445 121.916 35.8427 110.119 35.8424C98.3215 35.8422 86.5414 39.3455 77.5568 46.3504C57.7135 61.824 55.0047 63.9229 53.7435 64.9032L50.1066 62.0673C49.8434 61.8631 49.6346 61.6203 49.4921 61.353C49.3496 61.0857 49.2763 60.7992 49.2763 60.5097C49.2763 60.2203 49.3496 59.9335 49.4921 59.6662C49.6346 59.3989 49.8434 59.1563 50.1066 58.9521C50.1066 58.9521 54.6815 55.4008 77.5568 37.5629C86.5414 30.558 98.3215 27.0548 110.119 27.0552Z" fill="#A42003"/>
</svg>
