<svg width="50" height="50" viewBox="0 0 50 50" fill="none" xmlns="http://www.w3.org/2000/svg">
<g clip-path="url(#clip0_33_533)">
<g opacity="0.6">
<path d="M4.49219 33.3984V21.1328C4.49219 19.2969 5.97656 17.8125 7.8125 17.8125H11.0547V16.25H7.8125C7.69531 16.25 7.53906 16.25 7.42188 16.2891C8.82812 14.8438 10.7422 14.1016 13.0859 14.1016V12.5391C9.45312 12.5391 6.52344 14.1797 4.84375 17.1484C4.80469 17.2266 4.76563 17.3047 4.72656 17.3828C3.63281 18.2813 2.92969 19.6484 2.92969 21.1328V21.6016C2.03125 21.6797 1.28906 22.4609 1.28906 23.3984V25.6641C1.28906 26.6016 1.99219 27.3828 2.92969 27.4609V33.4375C2.92969 35.5859 3.67188 37.5781 4.96094 39.1406L2.96875 40.1172C1.64062 40.7422 0.78125 42.1094 0.78125 43.5938V49.2188H10.2344V47.6562H6.32813V46.9141H4.76562V47.6562H2.34375V43.5938C2.34375 42.7344 2.85156 41.9141 3.63281 41.5234L6.13281 40.3125C7.30469 41.2891 8.71094 41.9922 10.2734 42.2656L10.5469 40.7422C7.03125 40.0391 4.49219 36.9922 4.49219 33.3984ZM2.85156 25.625V23.3594C2.85156 23.2812 2.89062 23.2422 2.92969 23.2031V25.8203C2.89062 25.7422 2.85156 25.7031 2.85156 25.625Z" fill="#3EBBC4"/>
<path d="M8.16406 25.2734H14.5312V23.7109H6.60156V29.2578H16.4844V27.6953H8.16406V25.2734Z" fill="#3EBBC4"/>
<path d="M47.1875 21.3672C46.875 15.8594 42.6563 11.2891 37.1094 10.625L36.9141 12.1875C41.5625 12.7344 45.1563 16.4844 45.625 21.0938L45.2734 21.0156C44.375 16.3281 41.4844 13.3203 37.3047 12.7344L37.0703 14.2969C40.7813 14.8437 43.2031 17.5781 43.8281 22.0312L43.4375 24.1797C43.3984 24.1797 43.3984 24.1797 43.3594 24.1797C40.6641 24.6094 38.3203 23.6719 36.2109 22.6172C35.8203 22.4219 35.3516 22.5781 35.1563 22.9687C34.9609 23.3594 35.1172 23.8281 35.5078 24.0234C37.3438 24.9609 39.5313 25.8594 42.0313 25.8594C42.3828 25.8594 42.7734 25.8203 43.125 25.7812L42.1875 31.0547C39.6484 36.0938 36.7969 36.6797 35.625 36.6797C34.4922 36.6797 32.2656 36.1719 30.0391 32.7734L28.7891 33.5938C31.4062 37.6172 34.2188 38.2422 35.7031 38.2422C36.5625 38.2422 37.3438 38.0469 38.0469 37.7734C38.2031 38.125 38.4766 38.3984 38.7891 38.5547L44.8828 41.4844C45.6641 41.875 46.1719 42.6562 46.1719 43.5547V47.5781H43.8281V46.9141H42.2656V47.5781H39.5703V49.1406H47.7734V43.5547C47.7734 42.0703 46.9141 40.7422 45.5859 40.0781L39.4922 37.1094V36.9531C41.5234 35.5078 42.9688 33.1641 43.7891 31.4453L45.2734 31.7187C45.4297 31.7578 45.5859 31.7578 45.7031 31.7578C46.9531 31.7578 48.0078 30.8594 48.2422 29.6484L49.1797 24.375C49.4141 22.9688 48.5547 21.6797 47.1875 21.3672ZM47.6563 24.0625L46.7188 29.3359C46.6406 29.8828 46.0938 30.2344 45.5469 30.1562L44.0625 29.8828L45.3516 22.6172L46.8359 22.8906C47.3828 23.0078 47.7344 23.5156 47.6563 24.0625Z" fill="#3EBBC4"/>
</g>
<path d="M37.5781 38.0859L31.6406 35.1953L29.6875 34.2578V33.6328C31.875 32.1484 34.2969 29.2578 36.3281 23.8281C37.3828 23.7891 38.2812 23.3203 38.8281 22.5391C39.4922 21.6016 39.6094 20.3516 39.1406 19.3359C38.9844 18.9844 38.75 18.7109 38.5156 18.4766H39.4531V14.7266L37.7734 14.2578V14.0234C37.7734 9.14063 35 4.72656 30.625 2.57812C30.3906 1.71875 29.6484 1.09375 28.7109 1.09375H25.7812V0.390625H24.2188V1.05469H21.2891C20.3516 1.05469 19.6094 1.67969 19.375 2.53906C15 4.6875 12.2266 9.14062 12.2266 13.9844V14.2188L10.5469 14.7266V18.4766H11.4844C11.2109 18.7109 11.0156 19.0234 10.8594 19.3359C10.3906 20.3516 10.5078 21.6016 11.1719 22.5391C11.7578 23.3594 12.6562 23.7891 13.6719 23.8281C15.7031 29.2578 18.1641 32.1094 20.3125 33.6328V34.2578L18.8672 34.9609L12.4219 38.0859C10.8203 38.8672 9.76562 40.5078 9.76562 42.3047V49.1406H40.2344V42.3047C40.2344 40.5078 39.1797 38.8672 37.5781 38.0859ZM28.125 34.8438C28.125 34.9609 28.0859 35.1172 28.0859 35.2734C28.0859 35.3516 28.0469 35.4688 28.0469 35.5469C28.0078 35.625 28.0078 35.7031 27.9688 35.7812C27.9688 35.7812 27.9688 35.8203 27.9297 35.8203C27.8906 35.8984 27.8906 35.9375 27.8516 36.0156C27.8516 36.0547 27.8125 36.0938 27.7734 36.1328C27.7734 36.1719 27.7344 36.2109 27.6953 36.25C27.6562 36.3281 27.6172 36.4062 27.5781 36.4844C27.2266 36.9922 26.7578 37.3828 26.2109 37.6172C26.2109 37.6172 26.2109 37.6172 26.1719 37.6172C26.0938 37.6562 26.0156 37.6953 25.9375 37.6953H25.8984C25.8203 37.7344 25.7422 37.7344 25.6641 37.7344C25.625 37.7344 25.625 37.7344 25.5859 37.7344C25.5078 37.7344 25.4297 37.7734 25.3516 37.7734C25.3125 37.7734 25.3125 37.7734 25.2734 37.7734C25.1562 37.7734 25.0781 37.7734 24.9609 37.7734C23.2422 37.7734 21.8359 36.3672 21.8359 34.6484V34.4141C23.125 35 24.2188 35.1172 24.9609 35.1172C25.7031 35.1172 26.7969 35 28.0859 34.4141V34.7656C28.125 34.8047 28.125 34.8047 28.125 34.8438ZM37.5781 21.6406C37.4219 21.8359 37.2266 22.0703 36.875 22.1875C37.0703 21.3281 37.2266 20.3906 37.3047 19.5312C37.5 19.6484 37.6562 19.8047 37.7344 20.0391C37.9688 20.5078 37.9297 21.1719 37.5781 21.6406ZM12.1094 15.8984L13.7891 15.4297V14.0234C13.7891 10.0391 15.9375 6.36719 19.2969 4.375V9.0625H20.8594V3.04688C20.8594 2.8125 21.0547 2.61719 21.2891 2.61719H24.2188V11.6016H25.7812V2.61719H28.7109C28.9453 2.61719 29.1406 2.8125 29.1406 3.04688V9.02344H30.7031V4.33594C34.1016 6.32812 36.2109 10 36.2109 13.9844V15.3906L37.8906 15.8594V16.875H12.1094V15.8984ZM12.4219 21.6406C12.0703 21.1719 12.0312 20.5078 12.2656 20.0391C12.3828 19.8438 12.5 19.6484 12.6953 19.5312C12.7734 20.5078 12.9688 21.3672 13.1641 22.1875C12.8125 22.0703 12.5781 21.8359 12.4219 21.6406ZM14.9609 22.8125C14.6094 21.5234 14.2578 20.1562 14.1797 18.4766H35.8203C35.7812 19.7266 35.5078 21.6016 35.0781 22.7734C31.5625 32.5781 26.875 33.6328 25 33.6328C23.1641 33.6719 18.4766 32.6172 14.9609 22.8125ZM38.6719 47.5781H35.1562V46.4844H33.5938V47.5781H16.4062V46.4844H14.8438V47.5781H11.3281V42.3047C11.3281 41.0938 12.0312 40 13.0859 39.4922L20.4688 35.9375C20.4688 35.9766 20.5078 36.0156 20.5078 36.0547C20.5078 36.0938 20.5469 36.1719 20.5469 36.2109C20.5859 36.2891 20.625 36.4062 20.6641 36.4844C20.6641 36.5234 20.7031 36.5625 20.7031 36.6016C20.7422 36.7188 20.8203 36.8359 20.8594 36.9141C20.8594 36.9141 20.8594 36.9531 20.8984 36.9531C20.9766 37.0703 21.0547 37.1875 21.1328 37.3047C21.1719 37.3438 21.1719 37.3828 21.2109 37.4219C21.25 37.5 21.3281 37.5781 21.4062 37.6562C21.4453 37.6953 21.4844 37.7344 21.5234 37.7734C21.5625 37.8516 21.6406 37.8906 21.7187 37.9688C21.7578 38.0078 21.7969 38.0469 21.8359 38.0859C21.9141 38.1641 21.9531 38.2031 22.0313 38.2812C22.0703 38.3203 22.1094 38.3594 22.1484 38.3984C22.2266 38.4766 22.3047 38.5156 22.3828 38.5938C22.4219 38.6328 22.4609 38.6328 22.4609 38.6719C22.5781 38.75 22.6953 38.8281 22.8125 38.9062C22.8516 38.9062 22.8516 38.9453 22.8906 38.9453C23.0078 38.9844 23.0859 39.0625 23.2031 39.1016C23.2422 39.1406 23.2812 39.1406 23.3594 39.1406C23.4375 39.1797 23.5156 39.2188 23.6328 39.2188C23.6719 39.2188 23.75 39.2578 23.7891 39.2578C23.8672 39.2969 23.9844 39.2969 24.0625 39.3359C24.1016 39.3359 24.1797 39.375 24.2188 39.375C24.2969 39.375 24.4141 39.4141 24.5312 39.4141C24.5703 39.4141 24.6094 39.4141 24.6875 39.4141C24.8438 39.4141 25 39.4531 25.1172 39.4531C25.2734 39.4531 25.3906 39.4531 25.5469 39.4531C25.625 39.4531 25.7031 39.4531 25.7422 39.4141C25.8203 39.4141 25.8594 39.4141 25.9375 39.375C26.0156 39.375 26.1328 39.3359 26.2109 39.2969C26.25 39.2969 26.2891 39.2969 26.3281 39.2578C26.4453 39.2188 26.5234 39.1797 26.6406 39.1797C26.6797 39.1797 26.6797 39.1797 26.7188 39.1797C26.8359 39.1406 26.9531 39.1016 27.0312 39.0625H27.0703C27.1875 39.0234 27.3047 38.9453 27.3828 38.9062C27.5 38.8281 27.5781 38.7891 27.6953 38.7109C27.8125 38.6328 27.8906 38.5938 27.9688 38.5156C27.9688 38.5156 28.0078 38.5156 28.0078 38.4766C28.0859 38.3984 28.1641 38.3203 28.2422 38.2812L28.2812 38.2422C28.3594 38.1641 28.3984 38.125 28.4766 38.0469C28.5156 38.0078 28.5547 37.9688 28.5547 37.9297C28.5938 37.8906 28.6328 37.8125 28.7109 37.7734C28.75 37.6953 28.8281 37.6562 28.8672 37.5781C28.9062 37.5391 28.9062 37.5 28.9453 37.5C29.2578 37.0703 29.4922 36.5625 29.6094 36.0156L36.9531 39.5703C38.0469 40.0781 38.7109 41.2109 38.7109 42.3828V47.5781H38.6719Z" fill="#00D4E3"/>
<path d="M33.3984 14.0625H16.6016V15.625H33.3984V14.0625Z" fill="#00D4E3"/>
</g>
<defs>
<clipPath id="clip0_33_533">
<rect width="50" height="50" fill="white"/>
</clipPath>
</defs>
</svg>
