<svg width="50" height="50" viewBox="0 0 50 50" fill="none" xmlns="http://www.w3.org/2000/svg">
<path fill-rule="evenodd" clip-rule="evenodd" d="M47 37.4529V8.25108C47 7.2036 46.5197 6.21095 45.6873 5.53858C44.866 4.87507 43.7862 4.59197 42.7302 4.76183C38.1468 5.37758 32.7917 4.12843 28.2028 0.998393C26.2907 -0.337488 23.7038 -0.3322 21.7972 1.01076C17.2303 4.14787 11.9082 5.45191 7.334 4.82555C6.24866 4.64153 5.16884 4.9158 4.34567 5.57401C3.5115 6.24106 3.0275 7.23367 3.0275 8.27937C3 14.3094 3 31.2831 3 37.4529C3 39.5355 4.26134 41.4234 6.22484 42.2851C10.326 44.0845 19.1755 47.9665 22.7248 49.5236C24.1695 50.1588 25.8305 50.1588 27.2752 49.5236C30.8245 47.9665 39.674 44.0845 43.7752 42.2851C45.7387 41.4234 47 39.5355 47 37.4529ZM43.3315 8.25108L43.3333 8.25286V37.4529C43.3333 38.1465 42.9135 38.7764 42.259 39.0648C38.1578 40.8625 29.3065 44.7463 25.759 46.3016C25.2768 46.5139 24.7232 46.5139 24.241 46.3016C20.6935 44.7463 11.8422 40.8625 7.741 39.0648C7.0865 38.7764 6.66667 38.1465 6.66667 37.4529C6.66667 31.2937 6.66667 14.366 6.69417 8.31123L6.69966 8.31301C12.163 9.08269 18.5082 7.61588 23.9293 3.88956L23.9403 3.88249C24.5783 3.42953 25.4308 3.42773 26.0597 3.87007L26.0707 3.87714C31.5028 7.58399 37.8498 8.99772 43.2673 8.26166L43.3315 8.25108ZM16.3705 25.0584L22.14 30.6266C22.855 31.3167 24.0155 31.3167 24.7323 30.6266L35.538 20.1979C36.253 19.5078 36.253 18.386 35.538 17.696C34.8212 17.0042 33.6607 17.0042 32.9457 17.696L23.4362 26.872L18.9628 22.5565C18.2478 21.8664 17.0855 21.8664 16.3705 22.5565C15.6555 23.2465 15.6555 24.3683 16.3705 25.0584Z" fill="#00D4E3"/>
</svg>
