<svg width="50" height="50" viewBox="0 0 50 50" fill="none" xmlns="http://www.w3.org/2000/svg">
<path d="M50 25.4444C50 21.8889 47.3958 20 43.75 20H33.2292C33.9583 17 34.375 14.1111 34.375 11.6667C34.375 2 31.875 0 29.6875 0C28.2292 0 27.1875 0.111111 25.7292 1.11111C25.3125 1.33333 25.1042 1.77778 25 2.22222L23.4375 11.2222C21.7708 16 17.5 20.1111 14.0625 22.8889V46.6667C15.2083 46.6667 16.6667 47.3333 18.0208 48.1111C19.6875 49 21.4583 49.8889 23.4375 49.8889H38.3333C41.4583 49.8889 43.75 47.2222 43.75 44.8889C43.75 44.4444 43.75 44 43.6458 43.6666C45.625 42.8889 46.875 41.1111 46.875 39.1111C46.875 38.1111 46.6667 37.2222 46.3542 36.5555C47.5 35.6667 48.75 34.2222 48.75 32.4445C48.75 31.5556 48.3333 30.4445 47.7083 29.6667C49.0625 28.5556 50 27 50 25.4444ZM46.7708 25.4444C46.7708 27.5555 44.6875 27.7778 44.375 28.7778C44.0625 29.8889 45.625 30.3333 45.625 32.3333C45.625 34.4445 43.2292 34.4444 42.9167 35.4444C42.5 36.6667 43.6458 37.1111 43.6458 39.1111C43.6458 39.2222 43.6458 39.3333 43.6458 39.4444C43.3333 41.1111 40.9375 41.2222 40.5208 41.8889C40.1042 42.6667 40.625 43.1111 40.625 44.8889C40.625 45.8889 39.5833 46.5555 38.3333 46.5555H23.4375C22.2917 46.5555 20.8333 45.8889 19.4792 45.1111C18.2292 44.4445 16.9792 43.7778 15.625 43.4445V25.7778C19.4792 22.6667 24.4792 17.8889 26.4583 12.1111C26.4583 12 26.4583 11.8889 26.5625 11.8889L28.0208 3.55557C28.5417 3.33335 28.9583 3.33333 29.7917 3.33333C30.1042 3.33333 31.3542 5.33333 31.3542 11.6667C31.3542 14.1111 30.9375 16.8889 30.1042 20H29.6875C28.8542 20 28.125 20.7778 28.125 21.6667C28.125 22.5556 28.8542 23.3333 29.6875 23.3333H43.75C45.3125 23.3333 46.7708 24.1111 46.7708 25.4444Z" fill="#00D4E3"/>
<path d="M12.5 50H3.125C1.35417 50 0 48.5556 0 46.6667V23.3333C0 21.4444 1.35417 20 3.125 20H12.5C14.2708 20 15.625 21.4444 15.625 23.3333V46.6667C15.625 48.5556 14.2708 50 12.5 50ZM3.125 23.3333V46.6667H12.5V23.3333H3.125Z" fill="#00D4E3"/>
</svg>
