<svg width="34" height="34" viewBox="0 0 34 34" fill="none" xmlns="http://www.w3.org/2000/svg">
<path d="M19.8795 24.694L25.5594 15.551C25.578 15.5214 25.5935 15.4903 25.6057 15.4581C26.5865 13.8568 27.1044 12.0277 27.1044 10.1602C27.1044 4.55789 22.5514 0 16.9552 0C11.359 0 6.80567 4.55789 6.80567 10.1602C6.80567 12.0281 7.32431 13.858 8.30588 15.4603C8.31725 15.4884 8.33051 15.5157 8.34642 15.5422L13.8226 24.7168C9.57159 25.3183 6.77612 27.0682 6.77612 29.1909C6.77612 31.821 11.2408 33.8807 16.9401 33.8807C22.6393 33.8807 27.104 31.8206 27.104 29.1909C27.1044 27.0583 24.1786 25.2694 19.8795 24.694ZM9.3261 14.948C8.42067 13.5053 7.9422 11.8498 7.9422 10.1602C7.9422 5.18517 11.9852 1.13776 16.9552 1.13776C21.9248 1.13776 25.9678 5.18517 25.9678 10.1602C25.9678 11.8506 25.4894 13.506 24.5843 14.948C24.5654 14.9783 24.5498 15.0098 24.5373 15.0424L18.5365 24.7009C18.4463 24.8393 18.4285 24.8708 18.3183 25.0521L16.8029 27.4914L9.37687 15.0504C9.36361 15.0151 9.34656 14.9806 9.3261 14.948ZM16.9404 32.743C11.6204 32.743 7.91303 30.8706 7.91303 29.1909C7.91303 27.6663 10.7051 26.2297 14.4605 25.7848L16.3055 28.8761C16.4074 29.0464 16.59 29.1514 16.7881 29.153C16.7897 29.153 16.7915 29.153 16.7931 29.153C16.9893 29.153 17.1719 29.0513 17.2757 28.8844L19.2154 25.7624C23.0307 26.1762 25.9675 27.6492 25.9675 29.1909C25.9678 30.871 22.2605 32.743 16.9404 32.743Z" fill="#FE3F15"/>
<path d="M20.4004 10.73C20.4004 8.91028 18.9198 7.42969 17.1001 7.42969C15.2804 7.42969 13.7998 8.91028 13.7998 10.73C13.7998 12.5497 15.2804 14.0303 17.1001 14.0303C18.9198 14.0303 20.4004 12.5497 20.4004 10.73ZM14.8162 10.73C14.8162 9.47066 15.8408 8.44611 17.1001 8.44611C18.3594 8.44611 19.384 9.47066 19.384 10.73C19.384 11.9894 18.3598 13.0139 17.1001 13.0139C15.8404 13.0139 14.8162 11.9894 14.8162 10.73Z" fill="#FE3F15"/>
</svg>
