<svg width="50" height="50" viewBox="0 0 50 50" fill="none" xmlns="http://www.w3.org/2000/svg">
<g opacity="0.7">
<path d="M16.4062 49.2188H1.17188V42.9688H16.4062V49.2188ZM2.73437 47.6562H14.8437V44.5312H2.73437V47.6562Z" fill="#3EBBC4"/>
</g>
<g opacity="0.7">
<path d="M32.4219 49.2188H17.1875V42.9688H32.4219V49.2188ZM18.75 47.6562H30.8594V44.5312H18.75V47.6562Z" fill="#3EBBC4"/>
</g>
<g opacity="0.7">
<path d="M48.4375 49.2188H33.2031V42.9688H48.4375V49.2188ZM34.7656 47.6562H46.875V44.5312H34.7656V47.6562Z" fill="#3EBBC4"/>
</g>
<g opacity="0.7">
<path d="M48.4375 42.1875H41.0156V35.9375H48.4375V37.5H42.5781V40.625H48.4375V42.1875Z" fill="#3EBBC4"/>
</g>
<g opacity="0.7">
<path d="M8.20312 42.1875H1.17188V40.625H6.64062V37.5H1.17188V35.9375H8.20312V42.1875Z" fill="#3EBBC4"/>
</g>
<g opacity="0.7">
<path d="M8.20312 35.1562H1.17188V28.9062H8.20312V35.1562ZM2.73438 33.5938H6.64062V30.4688H2.73438V33.5938Z" fill="#3EBBC4"/>
</g>
<g opacity="0.7">
<path d="M48.4375 35.1562H41.0156V28.9062H48.4375V35.1562ZM42.5781 33.5938H46.875V30.4688H42.5781V33.5938Z" fill="#3EBBC4"/>
</g>
<g opacity="0.7">
<path d="M48.4375 28.125H41.0156V21.875H48.4375V23.4375H42.5781V26.5625H48.4375V28.125Z" fill="#3EBBC4"/>
</g>
<g opacity="0.7">
<path d="M8.20312 28.125H1.17188V26.5625H6.64062V23.4375H1.17188V21.875H8.20312V28.125Z" fill="#3EBBC4"/>
</g>
<g opacity="0.7">
<path d="M8.20312 21.0938H1.17188V14.8438H8.20312V21.0938ZM2.73438 19.5312H6.64062V16.4062H2.73438V19.5312Z" fill="#3EBBC4"/>
</g>
<g opacity="0.7">
<path d="M48.4375 21.0938H41.0156V14.8438H48.4375V21.0938ZM42.5781 19.5312H46.875V16.4062H42.5781V19.5312Z" fill="#3EBBC4"/>
</g>
<g opacity="0.7">
<path d="M48.4375 14.0625H41.0156V7.8125H48.4375V9.375H42.5781V12.5H48.4375V14.0625Z" fill="#3EBBC4"/>
</g>
<g opacity="0.7">
<path d="M8.20312 14.0625H1.17188V12.5H6.64062V9.375H1.17188V7.8125H8.20312V14.0625Z" fill="#3EBBC4"/>
</g>
<g opacity="0.7">
<path d="M16.4062 7.03125H1.17188V0.78125H16.4062V7.03125ZM2.73437 5.46875H14.8437V2.34375H2.73437V5.46875Z" fill="#3EBBC4"/>
</g>
<g opacity="0.7">
<path d="M32.4219 7.03125H17.1875V0.78125H32.4219V7.03125ZM18.75 5.46875H30.8594V2.34375H18.75V5.46875Z" fill="#3EBBC4"/>
</g>
<g opacity="0.7">
<path d="M48.4375 7.03125H33.2031V0.78125H48.4375V7.03125ZM34.7656 5.46875H46.875V2.34375H34.7656V5.46875Z" fill="#3EBBC4"/>
</g>
<path d="M40.2344 7.8125H8.98438V39.4531V42.1875H40.2344V39.4531V7.8125ZM38.6719 40.625H10.5469V39.4531H38.6719V40.625ZM38.6719 37.8906H25.3906V9.375H38.6719V37.8906ZM10.5469 9.375H23.8281V37.8906H10.5469V9.375Z" fill="#00D4E3"/>
<g opacity="0.3">
<path d="M37.4564 11.1894L35.9783 10.6829L31.2926 24.3555L32.7707 24.8621L37.4564 11.1894Z" fill="#3EBBC4"/>
</g>
<g opacity="0.3">
<path d="M33.5437 11.21L32.0723 10.6843L30.1143 16.1653L31.5857 16.6909L33.5437 11.21Z" fill="#3EBBC4"/>
</g>
</svg>
