<svg width="30" height="30" viewBox="0 0 30 30" fill="none" xmlns="http://www.w3.org/2000/svg">
<g clip-path="url(#clip0_11_197)">
<path d="M15 30C23.2843 30 30 23.2843 30 15C30 6.71575 23.2843 0 15 0C6.71575 0 0 6.71575 0 15C0 23.2843 6.71575 30 15 30Z" fill="url(#paint0_linear_11_197)"/>
<path d="M5.58627 15.7337C7.33976 14.7679 9.29713 13.9617 11.126 13.1515C14.2724 11.8244 17.4313 10.5202 20.622 9.30611C21.2428 9.09923 22.3583 8.89692 22.4676 9.81692C22.4078 11.1192 22.1614 12.4138 21.9924 13.7084C21.5634 16.5554 21.0677 19.3927 20.5843 22.2303C20.4177 23.1755 19.2336 23.6648 18.476 23.0599C16.6553 21.83 14.8205 20.6122 13.023 19.3538C12.4342 18.7555 12.9802 17.8963 13.5061 17.469C15.0057 15.9912 16.5961 14.7355 18.0173 13.1813C18.4007 12.2555 17.2679 13.0357 16.8943 13.2748C14.8413 14.6895 12.8386 16.1907 10.6741 17.434C9.56844 18.0427 8.27982 17.5225 7.17469 17.1829C6.18381 16.7727 4.73179 16.3594 5.58617 15.7338L5.58627 15.7337Z" fill="white"/>
</g>
<defs>
<linearGradient id="paint0_linear_11_197" x1="11.2517" y1="1.251" x2="3.75175" y2="18.75" gradientUnits="userSpaceOnUse">
<stop stop-color="#37AEE2"/>
<stop offset="1" stop-color="#1E96C8"/>
</linearGradient>
<clipPath id="clip0_11_197">
<rect width="30" height="30" fill="white"/>
</clipPath>
</defs>
</svg>
