<svg width="30" height="30" viewBox="0 0 30 30" fill="none" xmlns="http://www.w3.org/2000/svg">
<path d="M0 29L3.2 22L8 27L0 29Z" fill="#924CC4"/>
<ellipse cx="15" cy="15" rx="15" ry="15" fill="#924CC4"/>
<path opacity="0.2" d="M15.9865 3.92065L15.9886 3.92298C15.6201 3.92298 15.313 4.24523 15.3095 4.63526C15.3074 5.02708 15.6132 5.35484 15.9844 5.35686C17.5862 5.37002 18.9033 5.92488 19.9653 7.01654C21.0148 8.09806 21.5629 9.59556 21.5769 11.551V11.5533C21.5807 11.9424 21.8864 12.2633 22.256 12.2633C22.256 12.2633 22.262 12.261 22.2624 12.2609C22.6327 12.2572 22.9402 11.9308 22.9372 11.5393C22.9288 10.3981 22.7598 9.34923 22.4283 8.42715C22.0927 7.49532 21.5818 6.67118 20.9169 5.98535C19.6026 4.63423 17.9249 3.93556 15.9928 3.92065H15.9865ZM8.45034 6.32055C8.19232 6.27316 7.91395 6.32753 7.63499 6.47418H7.61157L7.58177 6.4928C7.06354 6.81492 6.57653 7.24546 6.12138 7.78702L6.08519 7.83125V7.86849C5.77035 8.29763 5.56251 8.73001 5.51466 9.16271C5.49938 9.23605 5.49976 9.30378 5.49976 9.37454C5.49976 9.5714 5.52726 9.76957 5.58278 9.96578L5.59768 10.0216L5.62749 10.0426C5.80725 10.7168 6.2166 11.7644 7.10917 13.5412C7.70367 14.7188 8.31109 15.7035 8.91443 16.5323C9.23223 16.9679 9.59084 17.4209 10.0087 17.8777C10.0136 17.8832 10.0321 17.9031 10.0512 17.922C10.0579 17.9292 10.0667 17.9436 10.0896 17.9685L10.1321 18.0151H10.1343C10.149 18.0312 10.1598 18.0421 10.162 18.0453L10.1684 18.0546L10.1769 18.0639C10.5947 18.5157 11.0067 18.9106 11.4095 19.2557C12.1666 19.9152 13.0658 20.5855 14.143 21.2366C15.7702 22.2179 16.7398 22.6612 17.3533 22.8544L17.3745 22.8847L17.4129 22.8986C17.5867 22.962 17.766 22.99 17.9451 22.9871C18.0177 22.9914 18.0817 22.9859 18.1431 22.9708C18.5632 22.9171 18.9812 22.7011 19.3927 22.3237L19.3969 22.3167L19.4012 22.3143C19.4076 22.3074 19.4042 22.3096 19.4076 22.305C19.4113 22.3014 19.4123 22.297 19.4161 22.2933C19.9033 21.8073 20.2954 21.2788 20.5912 20.7128L20.6104 20.6778V20.6429C20.8821 20.0245 20.775 19.3928 20.3337 18.9902C20.3229 18.9801 20.1114 18.787 19.8483 18.5526C19.5792 18.313 19.259 18.0318 19.0436 17.859C18.6359 17.5293 18.0062 17.1021 17.6471 16.8836C16.9573 16.4614 16.2356 16.707 15.9184 17.156L15.3628 17.9171C15.1386 18.226 14.6892 18.1972 14.6773 18.1965C10.9059 17.1359 9.89252 12.9886 9.88528 12.9591C9.88461 12.9461 9.85804 12.4564 10.1407 12.2072L10.8326 11.602C11.2444 11.2573 11.4764 10.468 11.0881 9.71188C10.8854 9.32117 10.4931 8.62714 10.196 8.18506C10.0354 7.94864 9.7788 7.59965 9.55947 7.30518C9.45032 7.158 9.34874 7.02189 9.27633 6.92576C9.2396 6.87769 9.21216 6.83889 9.19117 6.8117C9.18071 6.79811 9.17175 6.78925 9.16562 6.78144C9.16257 6.77752 9.15985 6.7754 9.15712 6.77213C8.96554 6.52335 8.72139 6.37105 8.45247 6.32055H8.45034ZM16.0269 7.26095C15.6634 7.23293 15.3381 7.52925 15.3116 7.91272C15.2851 8.29661 15.568 8.63892 15.9311 8.6669C16.829 8.73629 17.4343 9.0249 17.8896 9.55145V9.55383C18.3544 10.0901 18.5673 10.7024 18.5496 11.5394V11.544C18.5417 11.9292 18.836 12.2549 19.201 12.2633H19.218C19.5777 12.2633 19.8764 11.9523 19.8844 11.572C19.909 10.4214 19.568 9.39537 18.8774 8.59945C18.182 7.79958 17.1985 7.35201 16.0269 7.26095Z" fill="black"/>
<path d="M16.8759 3.69043L16.8782 3.69313C16.474 3.69313 16.1372 4.06736 16.1334 4.5203C16.131 4.97531 16.4664 5.35594 16.8735 5.35829C18.6304 5.37356 20.075 6.01792 21.2398 7.28565C22.3908 8.54161 22.992 10.2806 23.0073 12.5514V12.5541C23.0114 13.0059 23.3468 13.3786 23.7521 13.3786C23.7521 13.3786 23.7586 13.376 23.7591 13.3759C24.1653 13.3716 24.5025 12.9925 24.4992 12.5379C24.4901 11.2126 24.3047 9.99457 23.9412 8.92377C23.5731 7.84165 23.0128 6.88458 22.2834 6.08814C20.842 4.5191 19.0019 3.70774 16.8829 3.69043H16.8759ZM8.61041 6.4774C8.32742 6.42237 8.02211 6.48552 7.71615 6.65581H7.69047L7.65778 6.67743C7.0894 7.0515 6.55525 7.55149 6.05605 8.1804L6.01636 8.23176V8.27501C5.67105 8.77336 5.4431 9.27548 5.39061 9.77797C5.37385 9.86313 5.37427 9.94179 5.37427 10.024C5.37427 10.2526 5.40444 10.4827 5.46533 10.7106L5.48167 10.7754L5.51436 10.7998C5.71152 11.5827 6.16049 12.7993 7.13944 14.8626C7.79148 16.2302 8.45768 17.3737 9.11941 18.3362C9.46798 18.8421 9.86129 19.3681 10.3195 19.8986C10.3249 19.905 10.3452 19.9281 10.3662 19.95C10.3735 19.9584 10.3832 19.9751 10.4083 20.0041L10.455 20.0581H10.4573C10.4734 20.0768 10.4852 20.0895 10.4876 20.0933L10.4947 20.1041L10.504 20.1149C10.9623 20.6395 11.414 21.0981 11.8559 21.4989C12.6862 22.2648 13.6725 23.0432 14.8539 23.7993C16.6387 24.9389 17.7021 25.4537 18.3749 25.678L18.3982 25.7132L18.4402 25.7294C18.6308 25.8029 18.8276 25.8355 19.024 25.8321C19.1036 25.8371 19.1738 25.8308 19.2411 25.8132C19.7019 25.7508 20.1603 25.4999 20.6117 25.0617L20.6163 25.0536L20.621 25.0509C20.6281 25.0429 20.6243 25.0455 20.628 25.0401C20.6321 25.0359 20.6332 25.0308 20.6374 25.0266C21.1716 24.4622 21.6018 23.8484 21.9262 23.1911L21.9472 23.1506V23.11C22.2452 22.3918 22.1278 21.6582 21.6437 21.1908C21.6319 21.179 21.3999 20.9548 21.1113 20.6826C20.8162 20.4042 20.465 20.0777 20.2288 19.877C19.7817 19.4942 19.091 18.9981 18.6971 18.7444C17.9405 18.254 17.149 18.5392 16.8012 19.0607L16.1918 19.9446C15.9458 20.3033 15.453 20.2699 15.4399 20.269C11.3035 19.0373 10.1921 14.2211 10.1841 14.1868C10.1834 14.1718 10.1542 13.6031 10.4643 13.3137L11.2231 12.6109C11.6747 12.2106 11.9292 11.2939 11.5033 10.4159C11.2811 9.96199 10.8509 9.15601 10.525 8.64264C10.3489 8.36808 10.0674 7.9628 9.82688 7.62084C9.70717 7.44992 9.59576 7.29186 9.51634 7.18022C9.47605 7.1244 9.44596 7.07934 9.42294 7.04777C9.41147 7.03199 9.40164 7.02169 9.39493 7.01263C9.39158 7.00807 9.38858 7.00561 9.38559 7.00181C9.17547 6.71291 8.9077 6.53605 8.61274 6.4774H8.61041ZM16.9202 7.56948C16.5215 7.53693 16.1648 7.88105 16.1357 8.32637C16.1066 8.77217 16.4169 9.1697 16.8152 9.20219C17.8 9.28277 18.4639 9.61792 18.9633 10.2294V10.2321C19.473 10.8549 19.7065 11.5659 19.6871 12.5379V12.5433C19.6785 12.9906 20.0012 13.3688 20.4015 13.3786H20.4202C20.8147 13.3786 21.1423 13.0174 21.151 12.5757C21.178 11.2396 20.804 10.0481 20.0466 9.1238C19.2839 8.19497 18.2052 7.67523 16.9202 7.56948Z" fill="white"/>
</svg>
