<svg width="30" height="30" viewBox="0 0 30 30" fill="none" xmlns="http://www.w3.org/2000/svg">
<g clip-path="url(#clip0_11_210)">
<path d="M0 29.9307L2.58 22.4236C1.27086 20.2878 0.517241 17.7952 0.517241 15.1301C0.517241 7.23317 7.11724 0.831299 15.2586 0.831299C23.4 0.831299 30 7.23317 30 15.1301C30 23.0271 23.4 29.429 15.2586 29.429C12.7816 29.429 10.4488 28.8335 8.4 27.7869L0 29.9307Z" fill="#2CB742"/>
<path opacity="0.2" d="M25.3337 19.8674C24.6427 18.6411 22.0949 17.2389 22.0949 17.2389C21.5185 16.9302 20.8228 16.8957 20.4942 17.4459C20.4942 17.4459 19.6663 18.3783 19.4557 18.5124C18.4939 19.1243 17.603 19.1007 16.7037 18.2561L14.6136 16.2932L12.5236 14.3303C11.6243 13.4856 11.5991 12.6489 12.2506 11.7456C12.3934 11.5479 13.3862 10.7703 13.3862 10.7703C13.9721 10.4612 13.9353 9.80836 13.6067 9.26698C13.6067 9.26698 12.1136 6.87413 10.8079 6.22525C10.2525 5.94914 9.57048 6.04578 9.12633 6.46291L8.20338 7.32972C5.27544 10.0795 6.7171 13.1839 9.64503 15.9337L12.321 18.4469L14.9969 20.96C17.9248 23.7099 21.2302 25.0638 24.1582 22.314L25.0811 21.4472C25.5253 21.0291 25.6277 20.3886 25.3337 19.8674Z" fill="black"/>
<path d="M24.6637 19.889C23.983 18.6412 21.4728 17.2143 21.4728 17.2143C20.9049 16.9002 20.2195 16.8651 19.8957 17.425C19.8957 17.425 19.0801 18.3738 18.8726 18.5102C17.9251 19.1329 17.0473 19.1088 16.1613 18.2494L14.1021 16.252L12.043 14.2547C11.157 13.3953 11.1321 12.5439 11.774 11.6247C11.9147 11.4235 12.8928 10.6323 12.8928 10.6323C13.4701 10.3178 13.4339 9.65349 13.1101 9.10261C13.1101 9.10261 11.639 6.66779 10.3526 6.00753C9.8054 5.72657 9.13351 5.82491 8.69592 6.24936L7.78661 7.13137C4.90196 9.92943 6.3223 13.0882 9.20695 15.8863L11.8433 18.4435L14.4797 21.0008C17.3644 23.7988 20.6209 25.1765 23.5056 22.3785L24.4149 21.4964C24.8525 21.071 24.9533 20.4193 24.6637 19.889Z" fill="white"/>
</g>
<defs>
<clipPath id="clip0_11_210">
<rect width="30" height="29.0994" fill="white" transform="translate(0 0.831299)"/>
</clipPath>
</defs>
</svg>
