<?xml version="1.0" encoding="UTF-8"?> <svg xmlns="http://www.w3.org/2000/svg" width="93" height="30" viewBox="0 0 93 30" fill="none"> <path fill-rule="evenodd" clip-rule="evenodd" d="M81.0375 19.055L78.7615 18.9492L82.6784 14.6089L78.7615 10.2156H80.9846L83.8428 13.3385L86.7011 10.2156H88.9242L85.0073 14.6089L88.9242 18.9492L86.6482 19.055L83.8428 15.9321L81.0375 19.055ZM51.2374 18.8963H42.4509V17.2554H51.2374V15.5616H44.0918H42.4509V10.2156H52.9841V11.8565H44.0918V13.8678H52.8783V14.1325V18.8963H51.2374ZM9.89844 18.8963V6.98682H11.5393V10.1097H20.0612V18.8433H9.89844V18.8963ZM31.4413 18.8963H30.3297V10.2156H31.9706V17.2025H38.9575V10.2156H40.5983V18.8433H39.9632H31.4413V18.8963ZM54.6779 18.8963V6.98682H56.3188V10.1097H64.8407V18.8433H54.6779V18.8963ZM66.852 18.8963V10.1097H77.0148V18.8433H66.852V18.8963ZM21.9137 18.8963V12.1211H23.5546V10.4803H28.7948V12.1211H23.6075V18.8433H21.9137V18.8963ZM18.4732 17.2025V11.8035H11.5922V17.2554H18.4732V17.2025ZM63.2527 17.2025V11.8035H56.3717V17.2554H63.2527V17.2025ZM75.3739 17.2025V11.8035H68.4929V17.2554H75.3739V17.2025Z" fill="#2F2F2F"></path> <path fill-rule="evenodd" clip-rule="evenodd" d="M33.664 29.4296L14.9265 21.0665H52.4015L33.664 29.4296ZM8.04549 18.4729L0 14.7677L8.04549 11.0625V18.4729ZM14.9794 8.36308L33.7169 0L52.4545 8.36308H14.9794Z" fill="#E30613"></path> <path fill-rule="evenodd" clip-rule="evenodd" d="M90.1408 9.7393V8.09844H89.5586V7.88672H91.0407V8.09844H90.4055V9.7393H90.1408Z" fill="black"></path> <path fill-rule="evenodd" clip-rule="evenodd" d="M91.2539 9.7393V7.88672H91.6244L92.0479 9.20999C92.1008 9.31585 92.1008 9.42171 92.1537 9.47464C92.1537 9.42171 92.2067 9.31585 92.2596 9.15706L92.683 7.88672H93.0006V9.7393H92.7889V8.2043L92.2596 9.7393H92.0479L91.5186 8.15137V9.7393H91.2539Z" fill="black"></path> </svg> 