<?xml version="1.0" encoding="UTF-8"?> <svg xmlns="http://www.w3.org/2000/svg" width="70" height="26" viewBox="0 0 70 26" fill="none"> <path d="M36.8418 25.6308V12.8589H39.9531V18.2595H40.1229L44.3782 12.8589H48.0426L43.4793 18.5589L48.1244 25.6308H44.4033L41.1977 20.6106L39.9531 22.1697V25.6308H36.8418Z" fill="#2F2F2F"></path> <path d="M49.2699 25.6308V12.8589H54.6378C55.6015 12.8589 56.4082 12.994 57.0577 13.2642C57.7114 13.5345 58.2017 13.9128 58.5285 14.3992C58.8596 14.8857 59.0251 15.449 59.0251 16.0893C59.0251 16.5757 58.9224 17.0102 58.7171 17.3927C58.5118 17.771 58.2289 18.0849 57.8685 18.3343C57.5082 18.5838 57.0912 18.7584 56.6177 18.8582V18.9829C57.1373 19.0079 57.6171 19.1471 58.0571 19.4007C58.5013 19.6544 58.8575 20.0077 59.1256 20.4609C59.3938 20.9099 59.5279 21.4421 59.5279 22.0574C59.5279 22.7434 59.3519 23.3566 58.9999 23.8971C58.6479 24.4334 58.1388 24.8575 57.4725 25.1693C56.8063 25.477 55.9975 25.6308 55.0463 25.6308H49.2699ZM52.3812 23.1425H54.3046C54.9793 23.1425 55.4758 23.0157 55.7943 22.7621C56.117 22.5085 56.2783 22.1551 56.2783 21.7019C56.2783 21.3735 56.2008 21.0908 56.0457 20.8538C55.8907 20.6127 55.6707 20.4277 55.3857 20.2988C55.1008 20.1657 54.7593 20.0992 54.3612 20.0992H52.3812V23.1425ZM52.3812 18.1098H54.1035C54.4429 18.1098 54.7446 18.0537 55.0086 17.9415C55.2726 17.8292 55.4779 17.6671 55.6246 17.455C55.7754 17.243 55.8509 16.9873 55.8509 16.688C55.8509 16.2597 55.6979 15.923 55.392 15.6777C55.0861 15.4324 54.6734 15.3097 54.1538 15.3097H52.3812V18.1098Z" fill="#2F2F2F"></path> <path d="M61.0239 25.6308V12.8589H69.9996V15.3659H64.1352V17.9851H69.5408V20.4983H64.1352V23.1238H69.9996V25.6308H61.0239Z" fill="#2F2F2F"></path> <path d="M0 25.5079V0.0869141H21.8596L15.7193 5.12199H6.38595V20.5957H15.7193L21.8596 25.5079H0Z" fill="#FE000A"></path> <path d="M33.8939 0.0869141H25.2974L9.57812 12.8588L25.2974 25.5079H33.8939L18.1746 12.8588L33.8939 0.0869141Z" fill="#2F2F2F"></path> </svg> 