<?xml version="1.0" encoding="UTF-8"?> <svg xmlns="http://www.w3.org/2000/svg" width="37" height="43" viewBox="0 0 37 43" fill="none"> <path d="M36.452 10.3829L18.6315 0.0559753C18.5034 -0.0181829 18.3456 -0.0188936 18.2176 0.0552645L0.299312 10.3505C0.170423 10.4237 0.0912897 10.5606 0.0912897 10.7096L0.0585938 26.2113V31.414C0.0585938 31.562 0.137727 31.6983 0.265905 31.7731L18.1162 42.0653C18.2442 42.1387 18.4027 42.1387 18.5299 42.0653L36.4387 31.7568C36.5669 31.6826 36.6467 31.5457 36.6467 31.3976L36.6586 10.7421C36.6586 10.594 36.5802 10.4571 36.452 10.3829Z" fill="white"></path> <path d="M36.2342 20.9551H0.474609V26.2194H36.2342V20.9551Z" fill="#00B8B5"></path> <path fill-rule="evenodd" clip-rule="evenodd" d="M33.5541 17.7801C33.5541 18.1445 33.229 18.4362 32.8654 18.4362C32.5012 18.4362 32.2242 18.1445 32.2242 17.7801L32.225 12.2555C32.225 11.8918 32.5019 11.6008 32.8654 11.6008C33.229 11.6008 33.5548 11.8918 33.5548 12.2555L33.5541 17.7801ZM29.4863 6.84666V20.1124H36.2454V10.742L29.4863 6.84666ZM16.9567 17.678C16.9567 18.0424 16.6397 18.3369 16.2755 18.3369C15.9118 18.3369 15.6142 18.0187 15.6142 17.655L15.615 11.0715C15.615 10.7071 15.9118 10.4141 16.2755 10.4141C16.6397 10.4141 16.9574 10.705 16.9574 11.0685L16.9567 17.678ZM15.6202 5.11875C15.6202 4.75507 15.9125 4.45962 16.2762 4.45962C16.6212 4.45962 16.9254 4.71289 16.9543 5.04909V7.6361L12.8645 10.0298V20.1124H19.7465L19.7455 1.17676L18.4247 0.415039L12.863 3.61782V8.02987L15.6209 6.46544L15.6202 5.11875ZM28.0892 14.5892H25.2965L25.2972 17.5787C25.2972 17.9431 25.0046 18.2379 24.6404 18.2379C24.2777 18.2379 23.9844 17.946 23.9844 17.5825V7.43542C23.9844 7.07174 24.2761 6.84761 24.6397 6.84761C25.0039 6.84761 25.2965 7.13926 25.2965 7.50271V10.9145H28.0892V6.05982L21.1782 2.02899L21.1768 20.1124H28.0892V14.5892ZM3.2867 15.6494V12.1747C3.2867 11.8103 3.57835 11.5158 3.9418 11.5158C4.30548 11.5158 4.60377 11.8074 4.60377 12.1709V20.1124H7.37653L7.37724 9.82696C7.37724 9.46328 7.66819 9.16854 8.03187 9.16854C8.39531 9.16854 8.69384 9.45973 8.69384 9.82388L8.69455 20.1124H11.4991V4.3421L0.507305 10.7102V20.1124H3.2867V15.6494ZM0.474609 31.4139L18.3256 41.7062L36.2335 31.3982V26.2036L0.474609 26.2126V31.4139Z" fill="#007DC5"></path> </svg> 