<?xml version="1.0" encoding="UTF-8"?> <svg xmlns="http://www.w3.org/2000/svg" width="73" height="29" viewBox="0 0 73 29" fill="none"> <path fill-rule="evenodd" clip-rule="evenodd" d="M25.5432 4.51685C23.3729 6.5623 16.7378 12.8054 10.7986 18.3903L0 28.5448L7.26899 28.5627L14.538 28.5807L22.7027 20.8697C27.1933 16.6286 33.5028 10.6736 36.7239 7.63635L42.5805 2.11405L53.1662 12.0632C58.9884 17.5352 65.3179 23.4894 67.2317 25.2947L70.7115 28.5772H71.8558C72.4851 28.5772 73 28.5575 73 28.5335C73 28.5094 67.731 23.5398 61.2912 17.4897C54.8513 11.4396 48.2324 5.21648 46.5823 3.66045L43.5823 0.831419L36.5358 0.814603L29.4894 0.797852L25.5432 4.51685ZM28.008 23.2697V28.5772H29.2138H30.4195V26.4104V24.2437L31.2291 24.2462L32.0387 24.2486L32.816 25.4589C33.2435 26.1246 33.8685 27.0912 34.2049 27.607L34.8164 28.5448L36.2409 28.5624L37.6654 28.5798L37.5321 28.4007C37.4587 28.3021 36.9714 27.5666 36.4494 26.7662C35.9273 25.9658 35.2895 24.9927 35.032 24.6038L34.5639 23.8967L35.0238 23.6167C36.0779 22.975 36.6911 21.9921 36.6886 20.9477C36.6858 19.684 35.8224 18.6797 34.3124 18.1836L33.7612 18.0025L30.8846 17.9823L28.008 17.9622V23.2697ZM50.3318 19.2327C50.0096 19.343 49.5058 19.5144 49.2121 19.6136L48.6781 19.7941V20.5313V21.2685H47.8858H47.0934V21.98V22.6914H47.8858H48.6781V24.855C48.6781 26.2105 48.7071 27.1465 48.7556 27.3613C48.9947 28.4192 49.5781 28.794 50.9653 28.781C51.5885 28.7752 52.487 28.6783 52.6173 28.6027C52.6487 28.5845 52.6744 28.2948 52.6744 27.9589V27.3483H52.0636C51.3536 27.3483 51.1424 27.2459 51.0235 26.8441C50.9822 26.7043 50.9525 25.7893 50.9523 24.648L50.9519 22.6914H51.8476H52.7433V21.98V21.2685H51.8492H50.955L50.9362 20.1504L50.9174 19.0322L50.3318 19.2327ZM32.9633 19.743C33.7303 19.8398 34.1371 20.3012 34.1371 21.0745C34.1371 21.7678 33.8136 22.2377 33.1945 22.4433C32.9119 22.5372 30.4686 22.5708 30.4368 22.4812C30.4273 22.4545 30.4195 21.8143 30.4195 21.0583V19.6839L31.5392 19.6943C32.155 19.6999 32.7958 19.7219 32.9633 19.743ZM41.7868 21.0817C40.1063 21.2101 38.8622 22.1535 38.3915 23.6565C38.2112 24.2323 38.1972 25.5235 38.3649 26.1114C38.887 27.9419 40.6211 28.9848 42.7856 28.77C44.2744 28.6222 45.2857 28.0035 45.877 26.8786C46.2015 26.2612 46.3335 25.7045 46.3333 24.9552C46.3326 22.3688 44.5721 20.869 41.7868 21.0817ZM57.5663 21.058C55.7997 21.1482 54.5159 22.0768 54.0073 23.6326C53.8115 24.2316 53.8327 25.7441 54.0449 26.3134C54.5121 27.5666 55.4548 28.3945 56.7414 28.6814C57.3469 28.8163 58.5129 28.8131 59.0821 28.6749C60.4466 28.3435 61.4508 27.4016 61.8152 26.1114C61.9605 25.5969 61.9766 24.3579 61.8444 23.8557C61.4176 22.2333 60.178 21.2265 58.4351 21.0869C58.1278 21.0623 57.7368 21.0493 57.5663 21.058ZM43.069 22.6382C43.3991 22.7911 43.6724 23.1536 43.8404 23.6616C43.9307 23.9345 43.9568 24.2433 43.9526 24.9875C43.9479 25.8347 43.9273 26.0055 43.7907 26.3349C43.4879 27.065 43.0508 27.3617 42.2858 27.3562C41.4389 27.3501 40.9623 26.9639 40.7225 26.0896C40.5981 25.6357 40.5815 24.4488 40.6917 23.8837C40.7837 23.4121 41.058 22.9218 41.3325 22.7383C41.8065 22.4214 42.5132 22.3807 43.069 22.6382ZM58.654 22.6392C59.2806 22.9166 59.5648 23.6272 59.5636 24.9135C59.5623 26.2194 59.302 26.8852 58.6687 27.2025C58.4006 27.3368 58.2834 27.3549 57.802 27.3368C57.3139 27.3185 57.2135 27.2931 56.9866 27.1306C56.5059 26.7863 56.2863 26.2651 56.2128 25.2939C56.1347 24.2609 56.368 23.2864 56.7949 22.8628C57.2232 22.4377 57.9904 22.3454 58.654 22.6392Z" fill="#FD0008"></path> </svg> 