<svg width="90" height="90" viewBox="0 0 90 90" fill="none" xmlns="http://www.w3.org/2000/svg">
<path d="M87.859 56.9126C82.8003 54.7876 78.2469 51.7615 74.3262 47.9212C71.9411 45.5827 67.8335 45.5827 65.4404 47.9212C64.2834 49.0548 63.0553 50.0939 61.7913 51.083C59.9122 50.312 49.2875 47.89 48.0817 47.5162C45.6921 46.7729 43.7473 44.954 42.8173 42.6678C50.1911 39.4604 54.0995 31.1708 54.7224 22.8359V21.5877H57.8565C58.8011 21.5877 59.5653 20.8223 59.5653 19.8788C59.5653 18.9353 58.8011 18.1699 57.8565 18.1699H55.7205L55.4835 15.7669C54.9238 10.1108 51.0412 5.4137 45.5919 3.79819L42.4768 2.87476V1.70888C42.4768 0.765377 41.7126 0 40.7679 0H31.0422C30.0998 0 29.3355 0.763127 29.3333 1.70438L29.331 2.86369L26.1447 3.80926C20.7177 5.41801 16.8383 10.095 16.2599 15.72L16.0073 18.1699H13.9148C12.9713 18.1699 12.2059 18.9353 12.2059 19.8788C12.2059 20.8223 12.9713 21.5877 13.9148 21.5877H17.1301L17.1323 22.965C17.7486 31.1489 21.6124 39.3681 28.9017 42.6113C27.9816 44.9465 26.127 46.7667 23.6839 47.521C21.6079 48.1619 13.5488 49.9263 13.5488 49.9263C13.5477 49.9263 13.5466 49.9263 13.5466 49.9263C12.433 50.1732 2.63484 52.5609 1.50459 60.4775C0.822659 65.2391 0.0270983 69.7582 0.0259733 69.7672C-0.061964 70.2633 0.0760356 70.7752 0.399847 71.1624C0.724784 71.5496 1.20422 71.7721 1.70934 71.7721H54.0648C56.0028 75.6482 58.3382 79.3219 61.0794 82.7484L65.0077 87.657C66.1981 89.1456 67.976 90 69.8829 90C71.7909 90 73.5676 89.1456 74.7592 87.657L78.6897 82.7441C83.8396 76.3048 87.5999 69.0198 89.8651 61.0919C90.3511 59.3913 89.4878 57.5956 87.859 56.9126ZM58.3727 53.4971C56.3201 54.8021 54.1728 55.9614 51.9056 56.9126C51.257 57.1863 50.7754 57.6657 50.4071 58.2153L51.9279 52.0218C52.0879 52.0597 57.8308 53.3358 58.3727 53.4971ZM44.6207 7.07326C48.7314 8.29258 51.6596 11.8371 52.0824 16.1048L52.2872 18.1697H42.4768V6.43801L44.6207 7.07326ZM39.0591 3.41757V18.1697H32.7154L32.7476 3.41757H39.0591ZM19.66 16.0714C20.0961 11.826 23.0232 8.29933 27.1172 7.08433L29.3233 6.43014L29.2978 18.1695H19.4442L19.66 16.0714ZM20.5456 22.8357V21.5875H51.3069L51.3092 22.7067C50.6372 31.6426 45.6197 40.6563 35.9252 40.6563C26.2307 40.6563 21.213 31.6424 20.5456 22.8357ZM35.925 44.0738C37.2088 44.0738 38.4126 43.9282 39.5619 43.6934C40.185 45.3466 41.1563 46.8063 42.3945 48.0001L35.9708 53.2167L29.4435 47.9444C30.654 46.7573 31.6007 45.3132 32.2082 43.6801C33.3808 43.9248 34.6112 44.0738 35.925 44.0738ZM19.8546 52.0229L24.0111 68.3538H13.1828V53.566C13.7926 53.378 18.3271 52.3756 19.8546 52.0229ZM4.88671 60.9622C5.29715 58.0919 7.56121 56.186 9.76508 54.9879V68.3538H3.73415C4.03228 66.5626 4.48171 63.7946 4.88671 60.9622ZM27.5378 68.3538L23.1745 51.2109C23.7351 51.064 25.9613 50.312 26.5577 50.0094L34.9005 56.7457C35.2131 56.9971 35.5937 57.1239 35.9741 57.1239C36.3557 57.1239 36.7373 56.9971 37.0511 56.7412L45.2938 50.0482C45.8623 50.3307 48.0407 51.0595 48.6081 51.2075L44.3994 68.3538H27.5378ZM47.9182 68.3538C47.9182 68.3538 49.8452 60.8966 49.9018 61.0934C50.6128 63.5821 51.4882 65.9986 52.4895 68.3538H47.9182ZM76.0207 80.6072L72.0901 85.5201C71.012 86.8684 68.7547 86.8684 67.6756 85.5201L63.7485 80.6115C58.8823 74.5305 55.3288 67.646 53.2307 60.0629C60.6562 57.0461 66.4274 51.739 67.8337 50.3617C68.3855 49.8209 69.1132 49.5228 69.8851 49.5228C70.655 49.5228 71.3825 49.8209 71.9334 50.3617C76.1654 54.5047 81.0772 57.7689 86.5776 60.1543C84.4379 67.644 80.8857 74.5239 76.0207 80.6072Z" fill="white"/>
<path d="M65.4359 66.4379C64.7684 65.7704 63.6871 65.7704 63.0194 66.4379C62.3519 67.1054 62.3519 68.1867 63.0194 68.8544L67.6197 73.4536C68.0013 73.8386 68.5109 74.0499 69.0526 74.0499C69.5945 74.0499 70.1028 73.8386 70.4812 73.4579L79.9098 64.0282C80.5773 63.3607 80.5773 62.2793 79.9098 61.6116C79.2434 60.9441 78.1609 60.9441 77.4933 61.6116L69.0526 70.0535L65.4359 66.4379Z" fill="white"/>
</svg>
