<svg width="91" height="90" viewBox="0 0 91 90" fill="none" xmlns="http://www.w3.org/2000/svg">
<path d="M58.9014 38.1601L58.9003 38.6718L56.8906 39.268C52.7378 40.5029 49.7679 44.0853 49.3254 48.3953L49.1832 49.7815H48.0606C47.1168 49.7815 46.3532 50.5469 46.3532 51.4904C46.3532 52.4339 47.1168 53.1993 48.0606 53.1993H49.9612L49.9635 53.7867C50.4147 59.7989 53.2013 65.8434 58.4555 68.4065C57.7808 69.7904 56.5948 70.8575 55.0832 71.3248C53.5893 71.7853 47.6927 73.0803 47.6927 73.0803C47.6915 73.0803 47.6882 73.0815 47.687 73.0815L47.6825 73.0826C46.8023 73.2772 39.386 75.1018 38.5157 81.1974C38.0178 84.6797 37.4365 87.986 37.4354 87.995C37.3475 88.4912 37.4854 89.003 37.8089 89.3902C38.1336 89.7774 38.6126 90 39.1172 90H89.1983C89.703 90 90.182 89.7774 90.5055 89.3902C90.8302 89.003 90.9679 88.4914 90.8802 87.995C90.8779 87.9862 90.2967 84.6797 89.7987 81.1974C88.9273 75.0851 81.4711 73.2673 80.6231 73.0803C80.6231 73.0803 74.7265 71.7853 73.2325 71.3248C71.7631 70.8708 70.5927 69.8518 69.8801 68.4211C75.1575 65.8623 77.9576 59.7811 78.4145 53.6577V53.1993H80.2552C81.1978 53.1993 81.9625 52.4339 81.9625 51.4904C81.9625 50.5469 81.1978 49.7815 80.2552 49.7815H79.1037L78.9692 48.4287C78.5413 44.0988 75.5689 40.4986 71.3986 39.2614L69.4423 38.6808V38.1646C69.4423 37.2211 68.6776 36.4557 67.7349 36.4557H60.6089C59.6672 36.4557 58.9036 37.2188 58.9014 38.1601ZM52.7225 48.7446C53.0226 45.8165 55.0411 43.3821 57.8623 42.5435L58.8926 42.2375L58.877 49.7815H52.6157L52.7225 48.7446ZM52.0799 75.6058L54.8721 86.582H47.9783V76.538C48.2453 76.4613 51.1197 75.8261 52.0799 75.6058ZM41.8961 81.6825C42.1273 80.0604 43.2866 78.8855 44.5637 78.0579V86.5822H41.138C41.3515 85.2872 41.6349 83.5093 41.8961 81.6825ZM58.3947 86.582L55.3968 74.7924C55.648 74.7223 56.8919 74.3062 57.272 74.1283L63.1497 78.8788C63.4619 79.1325 63.8422 79.2592 64.2223 79.2592C64.6035 79.2592 64.9848 79.1325 65.2983 78.8765L71.1017 74.1594C71.4628 74.3251 72.6745 74.7245 72.9291 74.7946L70.038 86.582H58.3947ZM80.3361 76.538V86.582H73.5536L76.2457 75.608C77.2039 75.8272 80.0705 76.4613 80.3361 76.538ZM86.4195 81.6825C86.6795 83.5093 86.964 85.2872 87.1776 86.582H83.7508V78.0588C85.0291 78.8855 86.1883 80.0615 86.4195 81.6825ZM68.2449 72.0791L64.2189 75.3521L60.1029 72.0245C60.7721 71.2824 61.3211 70.418 61.7325 69.4556C62.515 69.5947 63.3243 69.6892 64.1867 69.6892C65.0215 69.6892 65.8062 69.599 66.5677 69.4678C66.9766 70.4403 67.5446 71.3203 68.2449 72.0791ZM64.1867 66.2716C57.3752 66.2716 53.8451 59.8722 53.3738 53.6577V53.1993H75.003L75.0041 53.5285C74.5274 59.8722 70.9971 66.2716 64.1867 66.2716ZM70.428 42.5367C73.2614 43.3778 75.2799 45.8232 75.571 48.767L75.671 49.7815H69.4421V42.244L70.428 42.5367ZM66.0274 39.8733V49.7815H62.2915L62.3127 39.8733H66.0274Z" fill="white"/>
<path d="M4.97107 87.7213H32.288C33.2306 87.7213 33.9953 86.9559 33.9953 86.0124C33.9953 85.0689 33.2306 84.3036 32.288 84.3036H27.166V8.26164C27.166 8.05033 27.2793 7.86114 27.4683 7.75652C29.8092 6.45264 36.1861 3.41757 44.8082 3.41757C53.3259 3.41757 59.7694 6.45695 62.1425 7.76533C62.3348 7.86995 62.4504 8.0612 62.4504 8.27271V29.0504C62.4504 29.9939 63.2151 30.7593 64.1578 30.7593C65.1004 30.7593 65.8651 29.9939 65.8651 29.0504V8.27289C65.8651 6.81995 65.0704 5.4782 63.7898 4.77057C61.1833 3.33544 54.1174 0 44.8082 0C35.3859 0 28.3819 3.33544 25.8045 4.77282C24.5385 5.48045 23.7515 6.8177 23.7515 8.26183V29.6204H4.97107C2.77462 29.6204 0.987305 31.4093 0.987305 33.6078V83.7343C0.987305 85.9324 2.77462 87.7213 4.97107 87.7213ZM4.40196 33.6076C4.40196 33.2939 4.65767 33.0379 4.97107 33.0379H23.7515V84.3037H4.97107C4.65767 84.3037 4.40196 84.0478 4.40196 83.7341V33.6076Z" fill="white"/>
<path d="M39.117 17.0886H50.499C51.4417 17.0886 52.2063 16.3232 52.2063 15.3797C52.2063 14.4362 51.4417 13.6708 50.499 13.6708H39.117C38.1744 13.6708 37.4097 14.4362 37.4097 15.3797C37.4097 16.3232 38.1745 17.0886 39.117 17.0886Z" fill="white"/>
<path d="M39.117 30.7594H50.499C51.4417 30.7594 52.2063 29.9941 52.2063 29.0506C52.2063 28.1071 51.4417 27.3417 50.499 27.3417H39.117C38.1744 27.3417 37.4097 28.1071 37.4097 29.0506C37.4099 29.9941 38.1745 30.7594 39.117 30.7594Z" fill="white"/>
<path d="M39.117 44.4303H43.6699C44.6125 44.4303 45.3772 43.6649 45.3772 42.7214C45.3772 41.7779 44.6125 41.0125 43.6699 41.0125H39.117C38.1744 41.0125 37.4097 41.7779 37.4097 42.7214C37.4099 43.6649 38.1745 44.4303 39.117 44.4303Z" fill="white"/>
<path d="M39.117 58.1011H43.6699C44.6125 58.1011 45.3772 57.3357 45.3772 56.3922C45.3772 55.4487 44.6125 54.6833 43.6699 54.6833H39.117C38.1744 54.6833 37.4097 55.4487 37.4097 56.3922C37.4097 57.3357 38.1745 58.1011 39.117 58.1011Z" fill="white"/>
<path d="M39.117 71.772H41.3934C42.3361 71.772 43.1008 71.0066 43.1008 70.0631C43.1008 69.1196 42.3361 68.3542 41.3934 68.3542H39.117C38.1744 68.3542 37.4097 69.1196 37.4097 70.0631C37.4097 71.0066 38.1745 71.772 39.117 71.772Z" fill="white"/>
<path d="M11.8001 46.7088H16.353C17.2956 46.7088 18.0603 45.9434 18.0603 44.9999C18.0603 44.0564 17.2956 43.291 16.353 43.291H11.8001C10.8575 43.291 10.0928 44.0564 10.0928 44.9999C10.0928 45.9434 10.8576 46.7088 11.8001 46.7088Z" fill="white"/>
<path d="M11.8001 60.3797H16.353C17.2956 60.3797 18.0603 59.6143 18.0603 58.6708C18.0603 57.7273 17.2956 56.9619 16.353 56.9619H11.8001C10.8575 56.9619 10.0928 57.7273 10.0928 58.6708C10.0928 59.6143 10.8576 60.3797 11.8001 60.3797Z" fill="white"/>
<path d="M11.8001 74.0504H16.353C17.2956 74.0504 18.0603 73.2851 18.0603 72.3416C18.0603 71.3981 17.2956 70.6327 16.353 70.6327H11.8001C10.8575 70.6327 10.0928 71.3981 10.0928 72.3416C10.0928 73.2851 10.8576 74.0504 11.8001 74.0504Z" fill="white"/>
</svg>
