<svg width="91" height="90" viewBox="0 0 91 90" fill="none" xmlns="http://www.w3.org/2000/svg">
<g opacity="0.6">
<path d="M7.88438 60.8399V38.232C7.88438 34.8481 10.64 32.112 14.0482 32.112H20.0671V29.232H14.0482C13.8307 29.232 13.5406 29.232 13.3231 29.3041C15.9336 26.6401 19.487 25.2721 23.8378 25.2721V22.3921C17.0939 22.3921 11.6552 25.416 8.53702 30.8879C8.46451 31.0321 8.392 31.176 8.31947 31.32C6.28902 32.9761 4.98374 35.4959 4.98374 38.232V39.0961C3.31587 39.24 1.93806 40.6799 1.93806 42.4079V46.5841C1.93806 48.3121 3.24336 49.752 4.98374 49.8959V60.912C4.98374 64.8719 6.36155 68.5439 8.75457 71.4239L5.05625 73.224C2.5907 74.376 0.995361 76.896 0.995361 79.632V90H18.5443V87.1199H11.2926V85.752H8.39198V87.1199H3.896V79.632C3.896 78.048 4.8387 76.536 6.28902 75.8159L10.93 73.584C13.1055 75.384 15.7161 76.68 18.6167 77.1839L19.1244 74.376C12.5979 73.08 7.88438 67.464 7.88438 60.8399ZM4.8387 46.512V42.336C4.8387 42.1919 4.91121 42.12 4.98374 42.048V46.872C4.91121 46.728 4.8387 46.6559 4.8387 46.512Z" fill="#E9E9E9"/>
<path d="M14.7007 45.8639H26.5207V42.9839H11.8V53.2079H30.1466V50.3279H14.7007V45.8639Z" fill="#E9E9E9"/>
<path d="M87.1444 38.664C86.5643 28.5121 78.7327 20.0881 68.4354 18.864L68.0728 21.744C76.7022 22.7521 83.3737 29.664 84.2438 38.1601L83.5911 38.0159C81.9233 29.376 76.5572 23.832 68.7979 22.7521L68.3628 25.6321C75.2519 26.6399 79.7478 31.68 80.908 39.8879L80.1829 43.848C80.1103 43.848 80.1103 43.848 80.0379 43.848C75.0344 44.64 70.6833 42.912 66.7674 40.968C66.0423 40.608 65.1722 40.8959 64.8096 41.6159C64.4469 42.336 64.737 43.1999 65.4622 43.5599C68.8705 45.2879 72.9314 46.944 77.5724 46.944C78.225 46.944 78.9501 46.872 79.6028 46.7999L77.8624 56.52C73.1488 65.8081 67.8552 66.888 65.6797 66.888C63.5768 66.888 59.4433 65.952 55.31 59.6879L52.9895 61.2001C57.8479 68.616 63.0692 69.768 65.8247 69.768C67.4201 69.768 68.8705 69.408 70.1758 68.9039C70.4657 69.552 70.9735 70.0559 71.5536 70.344L82.866 75.744C84.3164 76.464 85.2591 77.9039 85.2591 79.56V86.9759H80.908V85.752H78.0074V86.9759H73.0038V89.8559H88.2321V79.56C88.2321 76.8239 86.6369 74.376 84.1712 73.1519L72.8588 67.68V67.3919C76.6296 64.7279 79.3128 60.408 80.8356 57.2399L83.5911 57.7439C83.8813 57.816 84.1712 57.8159 84.3888 57.8159C86.7093 57.8159 88.6673 56.16 89.1024 53.9279L90.8428 44.208C91.2779 41.6161 89.6825 39.24 87.1444 38.664ZM88.0147 43.632L86.2743 53.3519C86.1292 54.36 85.1141 55.008 84.0988 54.8639L81.3432 54.36L83.7363 40.968L86.4917 41.4719C87.507 41.688 88.1597 42.6239 88.0147 43.632Z" fill="#E9E9E9"/>
</g>
<path d="M69.3054 69.4799L58.283 64.1519L54.6572 62.4239V61.2719C58.7181 58.5359 63.2141 53.2079 66.9849 43.1999C68.9428 43.128 70.6106 42.2639 71.6259 40.824C72.8587 39.096 73.0763 36.792 72.206 34.9199C71.9161 34.272 71.4809 33.7679 71.0458 33.336H72.7862V26.424L69.6679 25.5599V25.1279C69.6679 16.128 64.5194 7.99199 56.3976 4.03199C55.9625 2.448 54.5846 1.296 52.8442 1.296H47.4055V0H44.5051V1.224H39.0664C37.326 1.224 35.9481 2.376 35.513 3.95999C27.3912 7.91999 22.2427 16.128 22.2427 25.056V25.4881L19.1244 26.424V33.336H20.8648C20.3571 33.7679 19.9945 34.3439 19.7046 34.9199C18.8343 36.792 19.0519 39.096 20.2847 40.824C21.3724 42.336 23.0402 43.128 24.9257 43.1999C28.6965 53.2079 33.2651 58.464 37.2534 61.2719V62.4239L34.5703 63.7199L22.6052 69.4799C19.632 70.9199 17.6741 73.9439 17.6741 77.2559V89.8559H74.2366V77.2559C74.2366 73.9439 72.2786 70.9199 69.3054 69.4799ZM51.7566 63.504C51.7566 63.7199 51.684 64.008 51.684 64.2959C51.684 64.44 51.6116 64.656 51.6116 64.8C51.539 64.9439 51.539 65.0879 51.4666 65.2318C51.4666 65.2318 51.4666 65.3039 51.394 65.3039C51.3214 65.4479 51.3214 65.5199 51.249 65.6639C51.249 65.7359 51.1764 65.808 51.1039 65.8799C51.1039 65.952 51.0315 66.0239 50.9589 66.0959C50.8863 66.2399 50.8139 66.3838 50.7413 66.528C50.0888 67.464 49.2185 68.1839 48.2032 68.6159C48.2032 68.6159 48.2032 68.6159 48.1308 68.6159C47.9858 68.6878 47.8407 68.7599 47.6957 68.7599H47.6231C47.4781 68.832 47.3331 68.832 47.1881 68.832C47.1156 68.832 47.1156 68.832 47.043 68.832C46.898 68.832 46.753 68.9039 46.608 68.9039C46.5354 68.9039 46.5354 68.9039 46.4628 68.9039C46.2453 68.9039 46.1003 68.9039 45.8827 68.9039C42.6921 68.9039 40.0814 66.3119 40.0814 63.1439V62.712C42.4745 63.7919 44.5051 64.0079 45.8827 64.0079C47.2605 64.0079 49.2911 63.7919 51.684 62.712V63.3599C51.7566 63.4319 51.7566 63.432 51.7566 63.504ZM69.3054 39.1679C69.0154 39.5279 68.6529 39.9599 68.0001 40.176C68.3627 38.5919 68.6529 36.8639 68.7978 35.2799C69.1604 35.4959 69.4504 35.784 69.5956 36.216C70.0307 37.0799 69.9581 38.304 69.3054 39.1679ZM22.0251 28.5839L25.1433 27.72V25.1279C25.1433 17.7841 29.1316 11.016 35.368 7.34399V15.984H38.2687V4.896C38.2687 4.464 38.6312 4.104 39.0664 4.104H44.5051V20.664H47.4055V4.104H52.8442C53.2794 4.104 53.6419 4.464 53.6419 4.896V15.912H56.5426V7.272C62.8516 10.944 66.7673 17.712 66.7673 25.056V27.6479L69.8855 28.512V30.384H22.0251V28.5839ZM22.6052 39.1679C21.9525 38.304 21.8799 37.0799 22.3151 36.216C22.5326 35.8561 22.7502 35.4959 23.1128 35.2799C23.2577 37.0799 23.6205 38.664 23.983 40.176C23.3303 39.9599 22.8952 39.5279 22.6052 39.1679ZM27.3186 41.328C26.6661 38.9519 26.0134 36.4319 25.8684 33.336H66.0422C65.9696 35.64 65.4621 39.096 64.6644 41.2559C58.138 59.3279 49.4361 61.2719 45.9553 61.2719C42.5471 61.344 33.8452 59.4 27.3186 41.328ZM71.3359 86.9759H64.8094V84.96H61.9089V86.9759H30.0017V84.96H27.1012V86.9759H20.5747V77.2559C20.5747 75.024 21.8799 73.0079 23.8379 72.0719L37.5435 65.5199C37.5435 65.592 37.6159 65.6639 37.6159 65.7359C37.6159 65.808 37.6885 65.952 37.6885 66.0239C37.7609 66.168 37.8335 66.3838 37.9061 66.528C37.9061 66.5999 37.9785 66.6719 37.9785 66.744C38.0511 66.96 38.1961 67.1759 38.2687 67.32C38.2687 67.32 38.2687 67.3919 38.3411 67.3919C38.4862 67.6079 38.6312 67.8239 38.7762 68.0399C38.8488 68.112 38.8488 68.1839 38.9212 68.256C38.9938 68.3999 39.1388 68.5439 39.2837 68.6878C39.3563 68.7599 39.4289 68.832 39.5013 68.9039C39.5739 69.048 39.7189 69.1199 39.8639 69.264C39.9365 69.3359 40.009 69.408 40.0814 69.4799C40.2266 69.624 40.299 69.6959 40.4442 69.8398C40.5166 69.9119 40.5892 69.984 40.6616 70.0559C40.8067 70.2 40.9517 70.2719 41.0967 70.416C41.1693 70.4879 41.2417 70.4879 41.2417 70.56C41.4593 70.7039 41.6768 70.8479 41.8944 70.9918C41.967 70.9918 41.967 71.0639 42.0394 71.0639C42.257 71.136 42.402 71.2799 42.6195 71.352C42.6921 71.4239 42.7645 71.4239 42.9097 71.4239C43.0547 71.4959 43.1996 71.568 43.4172 71.568C43.4898 71.568 43.6348 71.6399 43.7074 71.6399C43.8524 71.712 44.0699 71.712 44.2149 71.7838C44.2875 71.7838 44.4325 71.8559 44.5051 71.8559C44.6501 71.8559 44.8676 71.928 45.085 71.928C45.1576 71.928 45.2302 71.928 45.3752 71.928C45.6653 71.928 45.9553 71.9999 46.1729 71.9999C46.4628 71.9999 46.6804 71.9999 46.9706 71.9999C47.1156 71.9999 47.2605 71.9999 47.3331 71.928C47.4781 71.928 47.5507 71.928 47.6957 71.8559C47.8407 71.8559 48.0582 71.7839 48.2032 71.712C48.2758 71.712 48.3484 71.712 48.4208 71.6399C48.6384 71.568 48.7834 71.4959 49.0009 71.4959C49.0735 71.4959 49.0735 71.4959 49.1461 71.4959C49.3635 71.4239 49.5811 71.352 49.726 71.2799H49.7986C50.0162 71.2079 50.2338 71.0639 50.3788 70.9918C50.5963 70.8479 50.7413 70.776 50.9589 70.6319C51.1765 70.4879 51.3214 70.416 51.4666 70.2719C51.4666 70.2719 51.539 70.2719 51.539 70.2C51.684 70.0559 51.8292 69.9119 51.9742 69.8398L52.0465 69.7679C52.1917 69.624 52.2641 69.5519 52.4093 69.408C52.4817 69.3359 52.5543 69.264 52.5543 69.1919C52.6269 69.1199 52.6993 68.9759 52.8442 68.9039C52.9168 68.7599 53.0618 68.6878 53.1344 68.5439C53.2068 68.472 53.2068 68.3999 53.2794 68.3999C53.8595 67.6079 54.2947 66.6719 54.5122 65.6639L68.1451 72.2159C70.1757 73.1519 71.4083 75.2398 71.4083 77.3999V86.9759H71.3359Z" fill="white"/>
<path d="M61.546 25.2H30.3643V28.08H61.546V25.2Z" fill="white"/>
</svg>
