<svg width="90" height="90" viewBox="0 0 90 90" fill="none" xmlns="http://www.w3.org/2000/svg">
<path d="M81.2121 65.3527H71.1147C72.2638 57.3789 72.2638 57.2773 72.2638 57.1402C72.2638 54.6636 70.5958 50.8978 67.5825 50.5656C65.955 50.3829 64.2277 51.0608 62.8992 52.1993C62.8992 52.1993 48.817 47.4931 47.6918 47.1444C45.4622 46.4511 43.6478 44.7539 42.7801 42.6208C49.6599 39.6283 53.3063 31.8943 53.8876 24.1179V22.9533H56.8115C57.6927 22.9533 58.4059 22.2391 58.4059 21.359C58.4059 20.4789 57.6927 19.7647 56.8115 19.7647H54.8187L54.5976 17.5226C54.0755 12.2454 50.453 7.86322 45.3689 6.35607L42.4625 5.49457V4.40684C42.4625 3.5267 41.7494 2.8125 40.8682 2.8125H31.7942C30.9151 2.8125 30.2019 3.52459 30.1998 4.40262L30.1977 5.4842L27.2249 6.36645C22.1617 7.86744 18.5422 12.231 18.0025 17.479L17.767 19.7647H15.8144C14.9343 19.7647 14.2201 20.4789 14.2201 21.359C14.2201 22.2391 14.9343 22.9533 15.8144 22.9533H18.8141L18.8162 24.2383C19.3912 31.8737 22.9961 39.5422 29.7969 42.5679C28.9386 44.7465 27.2082 46.4447 24.9289 47.1484C22.9919 47.7462 15.5217 49.382 15.5217 49.382C15.5082 49.3842 15.4947 49.3789 15.4813 49.382C14.4423 49.6083 5.30182 51.8129 4.23061 59.2386C3.59639 63.6729 2.85741 67.8974 2.85635 67.9057C2.77532 68.3687 2.90311 68.844 3.20616 69.2053C3.50921 69.5665 3.95552 69.7741 4.42678 69.7741H48.686L48.7224 84.4843C48.7277 85.9748 49.942 87.1871 51.4316 87.1871H58.2459C58.8687 87.1871 59.424 86.9328 59.8589 86.5478C60.0021 86.5904 75.8251 86.6371 75.8251 86.6371C78.4532 86.6371 80.578 85.2442 81.4135 82.9876C81.4135 82.9876 86.8193 73.6126 86.8536 73.5129C87.4857 71.6342 87.1516 69.5188 85.9578 67.8581C84.8138 66.266 83.0845 65.3527 81.2121 65.3527ZM44.4625 9.41203C48.2979 10.5497 51.0299 13.8567 51.4242 17.8383L51.6153 19.7648H42.4623V8.8193L44.4625 9.41203ZM39.2737 6.00117V19.7647H33.3551L33.3852 6.00117H39.2737ZM21.1745 17.8072C21.5815 13.8463 24.3124 10.5558 28.1321 9.4224L30.1903 8.81209L30.1664 19.7648H20.9731L21.1745 17.8072ZM22.0007 24.1181V22.9535H50.7007L50.7028 23.9977C50.0758 32.3346 45.3945 40.7443 36.3497 40.7443C27.3049 40.7443 22.6235 32.3346 22.0007 24.1181ZM36.3497 43.933C37.5475 43.933 38.6706 43.797 39.7428 43.5781C40.3241 45.1206 41.2303 46.4824 42.3855 47.5961L36.3923 52.4631L30.3025 47.5443C31.4319 46.4367 32.3152 45.0895 32.8819 43.5656C33.9758 43.7938 35.1238 43.933 36.3497 43.933ZM27.6099 49.4706L35.3936 55.7555C35.6853 55.9902 36.0403 56.1085 36.3952 56.1085C36.7512 56.1085 37.1073 55.9902 37.4 55.7515L45.0904 49.507C45.6208 49.7707 47.1197 50.297 47.3097 50.351L42.8765 66.5859H28.4963L24.1514 50.6718C24.796 50.5055 27.0535 49.753 27.6099 49.4706ZM21.0499 51.4188L25.1915 66.5858H15.1313V52.7776C15.614 52.6291 19.7285 51.7229 21.0499 51.4188ZM7.38694 59.6936C7.77507 56.999 9.88743 55.2178 11.9427 54.1009V66.5858H6.3138C6.59188 64.9208 7.00708 62.3445 7.38694 59.6936ZM51.3838 62.6207C50.6581 62.6207 49.9773 62.903 49.4656 63.4157C48.9539 63.9285 48.6727 64.6114 48.6746 65.336L48.6778 66.5858H46.1815L50.3989 51.1397C50.839 51.2445 61.0236 54.8214 61.0236 54.8214C60.9665 54.9729 58.8676 61.0337 58.2698 62.6208H51.3838V62.6207ZM57.5296 83.9988H51.9099L51.8642 65.8093H57.5294V83.9988H57.5296ZM83.8734 72.3611C83.8734 72.3611 78.4822 81.707 78.449 81.8088C78.1023 82.8364 77.1224 83.4488 75.8249 83.4488H60.7183V64.8628C60.8304 64.7299 60.9352 64.5887 61.0006 64.4164C61.0939 64.1714 63.2903 58.4024 63.9205 56.125C64.2807 54.8234 65.9798 53.6214 67.2285 53.7335C68.0392 53.8249 69.0751 55.7348 69.0823 56.9886C69.0387 57.3852 68.2291 63.0255 67.6956 66.7187C67.6291 67.1774 67.7652 67.6404 68.0682 67.9911C68.3702 68.3399 68.8104 68.5413 69.2734 68.5413H81.2123C82.0448 68.5413 82.8316 68.9711 83.3682 69.7184C83.9346 70.5073 84.1193 71.485 83.8734 72.3611Z" fill="white"/>
</svg>
