<?xml version="1.0" encoding="UTF-8"?> <svg xmlns="http://www.w3.org/2000/svg" width="43" height="43" viewBox="0 0 43 43" fill="none"> <path d="M37.1204 5.87988H5.40039V38.2799H32.1693L37.1204 42.4799V5.87988Z" fill="url(#paint0_linear_43_7574)"></path> <rect x="0.269531" y="0.75" width="41.98" height="41.98" stroke="#268CBE" stroke-width="0.5"></rect> <path d="M9.01738 15.8024L11.4854 24.8206H11.5802L14.0532 15.8024H16.4465L12.9264 27.6721H10.1442L6.61914 15.8024H9.01738Z" fill="white"></path> <path d="M17.6755 27.6721V15.8024H19.8344V20.6998H24.2171V15.8024H26.371V27.6721H24.2171V22.7689H19.8344V27.6721H17.6755Z" fill="white"></path> <path d="M33.6904 19.2161C33.6505 18.7486 33.4793 18.3854 33.1768 18.1265C32.8743 17.8676 32.4638 17.7382 31.9453 17.7382C31.5929 17.7382 31.2954 17.7961 31.0528 17.9121C30.8101 18.0241 30.624 18.1806 30.4944 18.3815C30.3681 18.5824 30.3049 18.8104 30.3049 19.0654C30.2983 19.2779 30.3365 19.4634 30.4196 19.6218C30.506 19.7802 30.624 19.9174 30.7736 20.0333C30.9232 20.1453 31.096 20.2439 31.2921 20.3289C31.4882 20.41 31.6976 20.4796 31.9204 20.5375L32.8378 20.7925C33.2832 20.9084 33.692 21.063 34.0643 21.2562C34.4366 21.4494 34.759 21.687 35.0316 21.9691C35.3041 22.2511 35.5152 22.5834 35.6648 22.9659C35.8177 23.3484 35.8958 23.787 35.8991 24.2816C35.8958 25.008 35.7363 25.6378 35.4205 26.171C35.108 26.7003 34.656 27.1118 34.0643 27.4055C33.476 27.6952 32.7663 27.8401 31.9353 27.8401C31.111 27.8401 30.393 27.6933 29.7814 27.3997C29.1731 27.106 28.6978 26.6713 28.3554 26.0956C28.0163 25.5161 27.8385 24.7993 27.8219 23.9454H29.911C29.9343 24.3434 30.0323 24.6757 30.2052 24.9423C30.3814 25.205 30.6157 25.404 30.9082 25.5392C31.204 25.6706 31.5381 25.7363 31.9104 25.7363C32.276 25.7363 32.5935 25.6745 32.8627 25.5508C33.1353 25.4272 33.3463 25.2552 33.4959 25.035C33.6455 24.8148 33.7203 24.5617 33.7203 24.2758C33.7203 24.0092 33.6521 23.7851 33.5159 23.6035C33.3829 23.4219 33.1868 23.2673 32.9275 23.1398C32.6716 23.0123 32.3575 22.8964 31.9852 22.7921L30.8733 22.4675C30.0124 22.2241 29.3326 21.8435 28.834 21.3257C28.3355 20.808 28.0878 20.1106 28.0911 19.2335C28.0878 18.5148 28.2524 17.8869 28.5847 17.3499C28.9205 16.8128 29.3808 16.3936 29.9659 16.0922C30.5509 15.7908 31.2157 15.6401 31.9602 15.6401C32.7181 15.6401 33.3796 15.7908 33.9446 16.0922C34.513 16.3936 34.9551 16.8128 35.2709 17.3499C35.5867 17.8869 35.7496 18.509 35.7595 19.2161H33.6904Z" fill="white"></path> <defs> <linearGradient id="paint0_linear_43_7574" x1="21.2604" y1="5.87988" x2="21.2604" y2="42.4799" gradientUnits="userSpaceOnUse"> <stop stop-color="#2190C6"></stop> <stop offset="1" stop-color="#626161"></stop> </linearGradient> </defs> </svg> 